<svg width="98" height="33" viewBox="0 0 98 33" fill="none" xmlns="http://www.w3.org/2000/svg">
<path d="M41.9381 16.9766C41.9381 21.6178 38.3072 25.0378 33.8514 25.0378C29.3955 25.0378 25.7646 21.6178 25.7646 16.9766C25.7646 12.3026 29.3955 8.91528 33.8514 8.91528C38.3072 8.91528 41.9381 12.3026 41.9381 16.9766ZM38.3981 16.9766C38.3981 14.0762 36.2937 12.0918 33.8514 12.0918C31.409 12.0918 29.3046 14.0762 29.3046 16.9766C29.3046 19.8478 31.409 21.8613 33.8514 21.8613C36.2937 21.8613 38.3981 19.8442 38.3981 16.9766Z" fill="#B3B7BC"/>
<path d="M59.3834 16.9766C59.3834 21.6178 55.7525 25.0378 51.2967 25.0378C46.8408 25.0378 43.21 21.6178 43.21 16.9766C43.21 12.3063 46.8408 8.91528 51.2967 8.91528C55.7525 8.91528 59.3834 12.3026 59.3834 16.9766ZM55.8434 16.9766C55.8434 14.0762 53.739 12.0918 51.2967 12.0918C48.8543 12.0918 46.7499 14.0762 46.7499 16.9766C46.7499 19.8478 48.8543 21.8613 51.2967 21.8613C53.739 21.8613 55.8434 19.8442 55.8434 16.9766Z" fill="#B3B7BC"/>
<path d="M76.1022 9.4023V23.8748C76.1022 29.8281 72.5913 32.2595 68.4408 32.2595C64.5337 32.2595 62.1822 29.6463 61.2954 27.5093L64.3774 26.2263C64.9262 27.5383 66.271 29.0866 68.4371 29.0866C71.0939 29.0866 72.7403 27.4475 72.7403 24.3618V23.2024H72.6168C71.8245 24.1801 70.298 25.0342 68.3717 25.0342C64.3411 25.0342 60.6484 21.5233 60.6484 17.0056C60.6484 12.4553 64.3411 8.91528 68.3717 8.91528C70.2943 8.91528 71.8208 9.76939 72.6168 10.718H72.7403V9.40594H76.1022V9.4023ZM72.9911 17.0056C72.9911 14.1671 71.0976 12.0918 68.6879 12.0918C66.2455 12.0918 64.1993 14.1671 64.1993 17.0056C64.1993 19.8151 66.2455 21.8613 68.6879 21.8613C71.0976 21.8613 72.9911 19.8151 72.9911 17.0056Z" fill="#B3B7BC"/>
<path d="M81.6451 0.919434V24.5435H78.1924V0.919434H81.6451Z" fill="#B3B7BC"/>
<path d="M95.1011 19.6302L97.8488 21.462C96.962 22.774 94.8249 25.0347 91.1323 25.0347C86.5529 25.0347 83.1328 21.4947 83.1328 16.9734C83.1328 12.1795 86.5819 8.91211 90.7361 8.91211C94.9194 8.91211 96.9656 12.2413 97.6344 14.0404L98.0015 14.9562L87.2252 19.4194C88.0503 21.0367 89.3332 21.8618 91.1323 21.8618C92.935 21.8618 94.1853 20.9749 95.1011 19.6302ZM86.6437 16.7299L93.8473 13.7387C93.4511 12.7319 92.259 12.0305 90.8561 12.0305C89.057 12.0305 86.5529 13.6188 86.6437 16.7299Z" fill="#B3B7BC"/>
<path d="M12.6952 14.8796V11.4595H24.2202C24.3328 12.0556 24.391 12.7607 24.391 13.5239C24.391 16.0898 23.6895 19.2627 21.4289 21.5234C19.23 23.8131 16.4206 25.0343 12.6989 25.0343C5.80063 25.0343 0 19.4154 0 12.5171C0 5.6189 5.80063 0 12.6989 0C16.5151 0 19.2337 1.4974 21.2762 3.44912L18.8629 5.86241C17.3982 4.48858 15.4138 3.42004 12.6952 3.42004C7.65785 3.42004 3.71807 7.47976 3.71807 12.5171C3.71807 17.5545 7.65785 21.6142 12.6952 21.6142C15.9626 21.6142 17.8235 20.3022 19.0156 19.1101C19.9824 18.1433 20.6184 16.7622 20.8692 14.8759L12.6952 14.8796Z" fill="#B3B7BC"/>
</svg>
