<svg width="106" height="25" viewBox="0 0 106 25" fill="none" xmlns="http://www.w3.org/2000/svg">
<path d="M0.53 24V1.73H7.364C12.3053 1.73 14.776 3.65667 14.776 7.51C14.776 8.75667 14.4587 9.83333 13.824 10.74C13.1893 11.6467 12.328 12.2133 11.24 12.44C12.5093 12.6213 13.4953 13.1767 14.198 14.106C14.9233 15.0127 15.2973 16.2027 15.32 17.676C15.32 21.892 12.566 24 7.058 24H0.53ZM7.568 20.94C9.064 20.94 10.1293 20.6113 10.764 19.954C11.3987 19.2967 11.716 18.424 11.716 17.336C11.716 16.2253 11.3647 15.4207 10.662 14.922C9.982 14.4233 8.894 14.174 7.398 14.174H4.066V20.94H7.568ZM11.308 7.782C11.308 5.78733 10.0727 4.79 7.602 4.79H4.066V11.114H7.33C9.982 11.114 11.308 10.0033 11.308 7.782ZM17.666 15.942C17.666 13.1993 18.278 11.1253 19.502 9.72C20.726 8.292 22.426 7.578 24.602 7.578C26.778 7.578 28.4553 8.224 29.634 9.516C30.8353 10.7853 31.4587 12.6553 31.504 15.126L31.368 17.642H21.44C21.644 20.09 22.868 21.314 25.112 21.314C26.676 21.314 28.3307 21.0307 30.076 20.464L30.79 23.422C30.0647 23.6713 29.124 23.8867 27.968 24.068C26.812 24.272 25.86 24.374 25.112 24.374C20.148 24.374 17.666 21.5633 17.666 15.942ZM24.738 10.74C23.6727 10.74 22.868 11.0573 22.324 11.692C21.8027 12.304 21.508 13.3353 21.44 14.786H27.73C27.73 12.0887 26.7327 10.74 24.738 10.74ZM33.782 23.252L34.53 20.158C36.6833 20.838 38.3947 21.178 39.664 21.178C40.9333 21.178 41.7947 21.0533 42.248 20.804C42.7013 20.5773 42.928 20.1693 42.928 19.58C42.928 18.9907 42.724 18.5713 42.316 18.322C41.908 18.0727 41.1373 17.812 40.004 17.54C37.76 16.996 36.196 16.3953 35.312 15.738C34.428 15.058 33.986 13.9587 33.986 12.44C33.986 9.19867 36.0713 7.578 40.242 7.578C42.0327 7.578 44.1067 7.87267 46.464 8.462L45.818 11.692C43.574 11.0573 41.84 10.74 40.616 10.74C39.392 10.74 38.5647 10.8533 38.134 11.08C37.726 11.284 37.522 11.6467 37.522 12.168C37.522 12.6893 37.726 13.0747 38.134 13.324C38.5647 13.5507 39.6527 13.902 41.398 14.378C43.1433 14.854 44.424 15.4093 45.24 16.044C46.056 16.656 46.464 17.71 46.464 19.206C46.464 22.6287 44.356 24.34 40.14 24.34C38.168 24.34 36.0487 23.9773 33.782 23.252ZM52.584 7.85L52.652 8.836C54.488 7.99733 55.9273 7.578 56.97 7.578C58.806 7.578 60.1547 8.122 61.016 9.21C61.9 10.2753 62.342 11.9527 62.342 14.242V24H58.84V14.344C58.84 13.256 58.6473 12.406 58.262 11.794C57.8767 11.182 57.276 10.876 56.46 10.876C55.644 10.876 54.386 11.2727 52.686 12.066V24H49.184V7.85H52.584ZM64.994 24V20.872H70.06V10.978H65.266V7.85H73.562V20.872H78.356V24H64.994ZM71.624 5.504C70.944 5.504 70.4 5.3 69.992 4.892C69.6067 4.46133 69.414 3.906 69.414 3.226C69.414 2.546 69.618 2.002 70.026 1.594C70.434 1.186 70.978 0.981998 71.658 0.981998C72.3607 0.981998 72.8933 1.186 73.256 1.594C73.6413 1.97933 73.834 2.52333 73.834 3.226C73.834 3.92867 73.6413 4.484 73.256 4.892C72.8707 5.3 72.3267 5.504 71.624 5.504ZM81.178 24V1.39H84.68V14.344L86.924 14.106C88.1933 12.474 89.304 10.706 90.256 8.802L90.732 7.85H94.54C93.112 10.8647 91.5253 13.3807 89.78 15.398C91.2307 17.4607 92.6927 19.8973 94.166 22.708L94.846 24H90.868C89.7573 21.5973 88.488 19.2967 87.06 17.098L84.68 17.336V24H81.178ZM100.15 24V19.07H105.08V24H100.15Z" fill="#1A1A1A"/>
</svg>
