<svg width="133" height="33" viewBox="0 0 133 33" fill="none" xmlns="http://www.w3.org/2000/svg">
<path d="M0 6.7421C0 6.7421 3.3042 20.307 3.83153 22.5088C4.44703 25.0787 5.55605 26.0245 8.75354 25.3867L10.8168 16.9765C11.3397 14.8875 11.6904 13.3981 12.0266 11.2731H12.0857C12.3219 13.419 12.6582 14.8937 13.0885 16.9838C13.0885 16.9838 13.9284 20.8018 14.3585 22.8071C14.7898 24.8118 15.9899 26.0752 19.1218 25.3874L24.038 6.74353H20.0688L18.3904 14.8042C17.9392 17.1505 17.5297 18.9838 17.214 21.1303H17.158C16.8711 19.0052 16.5062 17.2445 16.0474 14.9585L14.2999 6.74353H10.1643L8.29505 14.7515C7.76547 17.1849 7.27015 19.1499 6.95517 21.2236H6.89813C6.57556 19.2707 6.14593 16.8011 5.68069 14.4455C5.68069 14.4455 4.57011 8.71783 4.18045 6.74353L0.000386466 6.74407L0 6.7421ZM37.838 6.7421V25.386H41.617V21.427V6.74121H37.838V6.7421ZM91.0617 6.7421V20.496C91.0617 22.3923 91.4179 23.7209 92.18 24.5325C92.8458 25.2424 93.9425 25.7021 95.2566 25.7021C96.3739 25.7021 97.4732 25.4898 97.9913 25.2964L97.9426 22.3378C97.5571 22.4328 97.1136 22.5089 96.507 22.5089C95.2197 22.5089 94.788 21.6829 94.788 19.9802V14.718H98.0792V11.1509H94.788V6.74215H91.0615L91.0617 6.7421ZM29.3928 11.0641C27.0442 11.0641 25.18 11.7248 24.1637 12.3131L24.9074 14.8645C25.8375 14.277 27.3183 13.7908 28.7204 13.7908C31.0419 13.7848 31.4214 15.1059 31.4214 15.9531V16.1535C26.363 16.1459 23.1678 17.8995 23.1678 21.4742C23.1678 23.6567 24.7943 25.702 27.6227 25.702C29.3637 25.702 30.8198 25.0063 31.6925 23.8917H31.7781C31.7781 23.8917 32.3559 26.3124 35.5396 25.3867C35.3724 24.3792 35.318 23.305 35.318 22.0112V17.0306C35.318 13.8562 33.9652 11.0642 29.3928 11.0642L29.3928 11.0641ZM51.9984 11.0641C49.6336 11.0641 48.5709 12.2648 47.9266 13.2834H47.8706V11.3803H44.2642V25.3868H48.0633V17.1726C48.0633 16.7875 48.1072 16.3803 48.2414 16.0261C48.5561 15.199 49.3242 14.2316 50.5504 14.2316C52.0833 14.2316 52.8006 15.53 52.8006 17.4039V25.3867H56.5956V17.0731C56.5956 16.7055 56.6459 16.2627 56.7539 15.9377C57.0659 14.9969 57.8939 14.2315 59.0337 14.2315C60.5878 14.2315 61.3336 15.5073 61.3336 17.7122V25.3867H65.1313V17.1373C65.1313 12.7867 62.9263 11.0642 60.4373 11.0642C59.3349 11.0642 58.4649 11.3411 57.6782 11.825C57.017 12.2315 56.4251 12.809 55.9077 13.5695H55.8517C55.2497 12.06 53.8374 11.0642 51.9977 11.0642L51.9984 11.0641ZM72.8604 11.0641C70.5124 11.0641 68.6485 11.7248 67.6314 12.3131L68.3761 14.8645C69.3052 14.277 70.787 13.7908 72.1884 13.7908C74.5083 13.7848 74.8887 15.1059 74.8887 15.9531V16.1535C69.8309 16.1459 66.6354 17.8995 66.6354 21.4742C66.6354 23.6567 68.2628 25.702 71.0926 25.702C72.8322 25.702 74.2888 25.0063 75.1599 23.8917H75.2458C75.2458 23.8917 75.8236 26.3124 79.0077 25.3867C78.8402 24.3792 78.7865 23.305 78.7865 22.0112V17.0306C78.7865 13.8562 77.4333 11.0642 72.8604 11.0642L72.8604 11.0641ZM88.6371 11.0641C87.1824 11.0641 85.5272 12.005 84.8325 14.0217H84.7264V11.3801H81.3064V25.3867H85.2051V18.2144C85.2051 17.8275 85.2285 17.4902 85.2896 17.1808C85.578 15.6784 86.725 14.718 88.3712 14.718C88.8231 14.718 89.1466 14.767 89.4965 14.8176V11.1508C89.2031 11.0914 89.0024 11.064 88.6373 11.064L88.6371 11.0641ZM31.5435 18.6355V20.3829C31.5435 20.6413 31.521 20.908 31.4495 21.1412C31.1571 22.1116 30.1536 22.9317 28.8992 22.9317C27.8534 22.9317 27.0226 22.337 27.0226 21.0791C27.0226 19.1549 29.1368 18.623 31.5436 18.6355H31.5435ZM75.0111 18.6355V20.3829C75.0111 20.6413 74.9882 20.908 74.9172 21.1412C74.6247 22.1116 73.6216 22.9317 72.3672 22.9317C71.3212 22.9317 70.4903 22.337 70.4903 21.0791C70.4903 19.1549 72.6044 18.623 75.0112 18.6355H75.0111Z" fill="#B3B7BC"/>
<path d="M118.51 0C117.29 0 116.321 0.682568 116.321 1.51352L117.062 9.91884C117.143 10.4252 117.763 10.8159 118.511 10.8159C119.261 10.8149 119.878 10.4246 119.962 9.91884L120.706 1.51352C120.706 0.682639 119.734 7.13722e-05 118.512 7.13722e-05L118.51 0ZM106.436 6.74235C105.803 6.75741 105.083 7.23784 104.626 8.03283C104.014 9.09144 104.122 10.2745 104.838 10.6895L112.473 14.2518C112.95 14.4296 113.598 14.0902 113.973 13.4423C113.973 13.4422 113.973 13.442 113.973 13.4419C114.35 12.7908 114.321 12.0587 113.924 11.7339L107.028 6.88813C106.849 6.78421 106.648 6.73744 106.437 6.74246L106.436 6.74235ZM130.585 6.74235C130.373 6.73733 130.172 6.7841 129.994 6.88802L123.097 11.7338C122.702 12.0586 122.673 12.7907 123.048 13.4418L123.048 13.4422C123.425 14.0901 124.071 14.4295 124.548 14.2517L132.186 10.6896C132.905 10.2745 133.008 9.09157 132.4 8.03291C131.941 7.23789 131.22 6.75749 130.587 6.74243L130.585 6.74235ZM112.759 17.832C112.66 17.8306 112.564 17.8459 112.474 17.8797L104.839 21.4378C104.123 21.8547 104.015 23.0381 104.627 24.0979C105.237 25.1544 106.313 25.6567 107.029 25.2423L113.925 20.4003C114.322 20.0716 114.351 19.3396 113.974 18.6891L113.978 18.6906C113.673 18.1607 113.187 17.8377 112.759 17.8319L112.759 17.832ZM124.265 17.832C123.838 17.8378 123.353 18.1608 123.047 18.6907L123.05 18.6893C122.675 19.3397 122.704 20.0717 123.098 20.4004L129.995 25.2424C130.71 25.6568 131.787 25.1545 132.4 24.098C133.008 23.0382 132.905 21.8547 132.186 21.4379L124.549 17.8798C124.46 17.846 124.364 17.8307 124.265 17.8321L124.265 17.832ZM118.509 21.3155C117.762 21.3164 117.144 21.7053 117.063 22.2104L116.322 30.6154C116.322 31.4477 117.291 32.1289 118.511 32.1289C119.734 32.1289 120.705 31.4477 120.705 30.6154L119.963 22.2104C119.879 21.7053 119.262 21.3164 118.512 21.3155H118.509H118.509Z" fill="#B3B7BC"/>
</svg>
