<svg width="269" height="297" viewBox="0 0 269 297" fill="none" xmlns="http://www.w3.org/2000/svg">
<rect width="268.72" height="296.928" rx="8" fill="white"/>
<path d="M58.1781 43.4335V33.9789H63.8841V34.9946H59.323V38.1892H63.5886V39.2048H59.323V42.4178H63.9579V43.4335H58.1781ZM67.8865 43.5997C67.4372 43.5997 67.0294 43.515 66.6632 43.3458C66.2969 43.1734 66.0061 42.9257 65.7907 42.6025C65.5752 42.2763 65.4675 41.8823 65.4675 41.4207C65.4675 41.0144 65.5475 40.6851 65.7076 40.4328C65.8676 40.1773 66.0815 39.9773 66.3493 39.8326C66.617 39.688 66.9125 39.5803 67.2356 39.5095C67.5618 39.4356 67.8896 39.3771 68.2189 39.334C68.6498 39.2786 68.9991 39.2371 69.2669 39.2094C69.5377 39.1786 69.7347 39.1278 69.8578 39.0571C69.984 38.9863 70.0471 38.8632 70.0471 38.6877V38.6508C70.0471 38.1953 69.9224 37.8414 69.6731 37.589C69.4269 37.3366 69.053 37.2105 68.5513 37.2105C68.0312 37.2105 67.6234 37.3243 67.3279 37.5521C67.0325 37.7798 66.8248 38.023 66.7047 38.2815L65.6706 37.9122C65.8553 37.4813 66.1015 37.1458 66.4093 36.9058C66.7201 36.6626 67.0587 36.4934 67.4249 36.398C67.7942 36.2995 68.1574 36.2502 68.5144 36.2502C68.7421 36.2502 69.0037 36.2779 69.2992 36.3333C69.5977 36.3856 69.8855 36.4949 70.1625 36.6611C70.4425 36.8273 70.6749 37.0781 70.8596 37.4136C71.0442 37.749 71.1365 38.1984 71.1365 38.7616V43.4335H70.0471V42.4732H69.9917C69.9178 42.6271 69.7947 42.7918 69.6223 42.9672C69.45 43.1426 69.2207 43.2919 68.9345 43.415C68.6483 43.5381 68.2989 43.5997 67.8865 43.5997ZM68.0527 42.621C68.4836 42.621 68.8468 42.5363 69.1422 42.3671C69.4408 42.1978 69.6654 41.9793 69.8162 41.7115C69.9701 41.4438 70.0471 41.1622 70.0471 40.8667V39.8696C70.0009 39.9249 69.8993 39.9757 69.7424 40.0219C69.5885 40.065 69.41 40.1035 69.2069 40.1373C69.0068 40.1681 68.8114 40.1958 68.6206 40.2204C68.4328 40.2419 68.2805 40.2604 68.1635 40.2758C67.8804 40.3127 67.6157 40.3727 67.3695 40.4558C67.1264 40.5359 66.9294 40.6574 66.7786 40.8205C66.6309 40.9806 66.557 41.1991 66.557 41.4761C66.557 41.8546 66.697 42.1409 66.9771 42.3348C67.2602 42.5256 67.6188 42.621 68.0527 42.621ZM73.1251 43.4335V36.3426H74.1776V37.4136H74.2515C74.3808 37.0627 74.6147 36.7781 74.9532 36.5595C75.2918 36.341 75.6734 36.2318 76.0981 36.2318C76.1781 36.2318 76.2781 36.2333 76.3982 36.2364C76.5182 36.2395 76.609 36.2441 76.6705 36.2502V37.3582C76.6336 37.349 76.549 37.3351 76.4166 37.3166C76.2874 37.2951 76.1504 37.2843 76.0058 37.2843C75.6611 37.2843 75.3533 37.3566 75.0825 37.5013C74.8147 37.6429 74.6024 37.8398 74.4454 38.0922C74.2915 38.3415 74.2146 38.6262 74.2146 38.9463V43.4335H73.1251ZM79.0515 39.1678V43.4335H77.962V36.3426H79.0146V37.4505H79.1069C79.2731 37.0904 79.5254 36.8011 79.864 36.5826C80.2025 36.361 80.6396 36.2502 81.1751 36.2502C81.6552 36.2502 82.0753 36.3487 82.4354 36.5457C82.7955 36.7396 83.0755 37.035 83.2756 37.4321C83.4756 37.826 83.5756 38.3246 83.5756 38.9278V43.4335H82.4862V39.0017C82.4862 38.4446 82.3415 38.0106 82.0522 37.6998C81.7629 37.3859 81.3659 37.2289 80.8612 37.2289C80.5134 37.2289 80.2025 37.3043 79.9286 37.4551C79.6578 37.6059 79.4439 37.826 79.2869 38.1153C79.13 38.4046 79.0515 38.7554 79.0515 39.1678ZM85.5665 43.4335V36.3426H86.656V43.4335H85.5665ZM86.1205 35.1607C85.9081 35.1607 85.725 35.0884 85.5711 34.9438C85.4203 34.7991 85.3449 34.6252 85.3449 34.4221C85.3449 34.219 85.4203 34.0451 85.5711 33.9004C85.725 33.7558 85.9081 33.6835 86.1205 33.6835C86.3328 33.6835 86.5144 33.7558 86.6652 33.9004C86.8191 34.0451 86.896 34.219 86.896 34.4221C86.896 34.6252 86.8191 34.7991 86.6652 34.9438C86.5144 35.0884 86.3328 35.1607 86.1205 35.1607ZM89.7409 39.1678V43.4335H88.6515V36.3426H89.704V37.4505H89.7963C89.9625 37.0904 90.2149 36.8011 90.5534 36.5826C90.892 36.361 91.329 36.2502 91.8645 36.2502C92.3446 36.2502 92.7647 36.3487 93.1248 36.5457C93.4849 36.7396 93.765 37.035 93.965 37.4321C94.1651 37.826 94.2651 38.3246 94.2651 38.9278V43.4335H93.1756V39.0017C93.1756 38.4446 93.031 38.0106 92.7417 37.6998C92.4524 37.3859 92.0553 37.2289 91.5506 37.2289C91.2028 37.2289 90.892 37.3043 90.6181 37.4551C90.3472 37.6059 90.1333 37.826 89.9764 38.1153C89.8194 38.4046 89.7409 38.7554 89.7409 39.1678ZM99.1182 46.2403C98.5919 46.2403 98.1395 46.1726 97.7609 46.0372C97.3824 45.9048 97.0669 45.7294 96.8145 45.5109C96.5653 45.2955 96.3667 45.0646 96.219 44.8184L97.0869 44.209C97.1854 44.3383 97.31 44.486 97.4608 44.6522C97.6117 44.8215 97.8179 44.9677 98.0795 45.0908C98.3441 45.217 98.6904 45.2801 99.1182 45.2801C99.6906 45.2801 100.163 45.1416 100.535 44.8646C100.908 44.5876 101.094 44.1536 101.094 43.5627V42.1224H101.002C100.922 42.2517 100.808 42.4117 100.66 42.6025C100.515 42.7902 100.306 42.958 100.032 43.1057C99.7614 43.2504 99.3952 43.3227 98.9335 43.3227C98.3611 43.3227 97.8471 43.1873 97.3916 42.9164C96.9392 42.6456 96.5806 42.2517 96.316 41.7346C96.0544 41.2176 95.9236 40.5897 95.9236 39.8511C95.9236 39.1248 96.0513 38.4923 96.3067 37.9537C96.5622 37.412 96.9176 36.9935 97.3731 36.698C97.8286 36.3995 98.3549 36.2502 98.952 36.2502C99.4136 36.2502 99.7799 36.3272 100.051 36.4811C100.325 36.6319 100.534 36.8042 100.679 36.9981C100.826 37.1889 100.94 37.3459 101.02 37.469H101.131V36.3426H102.184V43.6366C102.184 44.246 102.045 44.7415 101.768 45.1231C101.494 45.5078 101.125 45.7894 100.66 45.9679C100.198 46.1495 99.6845 46.2403 99.1182 46.2403ZM99.0812 42.344C99.5183 42.344 99.8876 42.244 100.189 42.0439C100.491 41.8439 100.72 41.5561 100.877 41.1806C101.034 40.8052 101.112 40.3558 101.112 39.8326C101.112 39.3217 101.036 38.8709 100.882 38.48C100.728 38.0891 100.5 37.7829 100.198 37.5613C99.8968 37.3397 99.5244 37.2289 99.0812 37.2289C98.6196 37.2289 98.2349 37.3459 97.9271 37.5798C97.6224 37.8137 97.3931 38.1276 97.2393 38.5215C97.0885 38.9155 97.0131 39.3525 97.0131 39.8326C97.0131 40.325 97.09 40.7605 97.2439 41.1391C97.4008 41.5146 97.6317 41.81 97.9363 42.0254C98.2441 42.2378 98.6257 42.344 99.0812 42.344ZM107.982 43.4335V33.9789H111.287C111.946 33.9789 112.489 34.0928 112.917 34.3205C113.345 34.5452 113.663 34.8484 113.872 35.23C114.082 35.6085 114.186 36.0286 114.186 36.4903C114.186 36.8965 114.114 37.232 113.969 37.4967C113.828 37.7614 113.64 37.9706 113.406 38.1245C113.175 38.2784 112.925 38.3923 112.654 38.4661V38.5585C112.943 38.5769 113.234 38.6785 113.526 38.8632C113.819 39.0478 114.063 39.3125 114.26 39.6572C114.457 40.0019 114.556 40.4235 114.556 40.9221C114.556 41.3961 114.448 41.8223 114.233 42.2009C114.017 42.5794 113.677 42.8795 113.212 43.1011C112.748 43.3227 112.143 43.4335 111.398 43.4335H107.982ZM109.127 42.4178H111.398C112.146 42.4178 112.677 42.2732 112.991 41.9839C113.308 41.6915 113.466 41.3376 113.466 40.9221C113.466 40.602 113.385 40.3066 113.222 40.0357C113.058 39.7618 112.826 39.5433 112.524 39.3802C112.223 39.214 111.866 39.1309 111.453 39.1309H109.127V42.4178ZM109.127 38.1338H111.25C111.595 38.1338 111.906 38.066 112.183 37.9306C112.463 37.7952 112.684 37.6044 112.848 37.3582C113.014 37.112 113.097 36.8227 113.097 36.4903C113.097 36.0748 112.952 35.7224 112.663 35.4331C112.374 35.1407 111.915 34.9946 111.287 34.9946H109.127V38.1338ZM116.991 46.0926C116.806 46.0926 116.642 46.0772 116.497 46.0464C116.352 46.0187 116.252 45.991 116.197 45.9633L116.474 45.0031C116.738 45.0708 116.972 45.0954 117.176 45.0769C117.379 45.0585 117.559 44.9677 117.716 44.8046C117.876 44.6445 118.022 44.3845 118.154 44.0244L118.357 43.4704L115.735 36.3426H116.917L118.874 41.9931H118.948L120.906 36.3426H122.087L119.078 44.4676C118.942 44.8338 118.774 45.137 118.574 45.377C118.374 45.6201 118.142 45.8002 117.877 45.9171C117.616 46.0341 117.32 46.0926 116.991 46.0926ZM127.329 43.4335V33.9789H130.524C131.266 33.9789 131.872 34.1128 132.343 34.3806C132.817 34.6452 133.168 35.0038 133.396 35.4562C133.623 35.9086 133.737 36.4133 133.737 36.9704C133.737 37.5275 133.623 38.0337 133.396 38.4892C133.171 38.9447 132.823 39.3079 132.352 39.5787C131.881 39.8465 131.278 39.9803 130.543 39.9803H128.253V38.9647H130.506C131.013 38.9647 131.421 38.877 131.729 38.7016C132.037 38.5262 132.26 38.2892 132.398 37.9906C132.54 37.689 132.611 37.349 132.611 36.9704C132.611 36.5919 132.54 36.2533 132.398 35.9548C132.26 35.6562 132.035 35.4223 131.724 35.2531C131.414 35.0807 131.001 34.9946 130.487 34.9946H128.474V43.4335H127.329ZM136.523 33.9789V43.4335H135.434V33.9789H136.523ZM140.605 43.5997C140.156 43.5997 139.748 43.515 139.382 43.3458C139.016 43.1734 138.725 42.9257 138.509 42.6025C138.294 42.2763 138.186 41.8823 138.186 41.4207C138.186 41.0144 138.266 40.6851 138.426 40.4328C138.586 40.1773 138.8 39.9773 139.068 39.8326C139.336 39.688 139.631 39.5803 139.954 39.5095C140.281 39.4356 140.608 39.3771 140.938 39.334C141.369 39.2786 141.718 39.2371 141.986 39.2094C142.256 39.1786 142.453 39.1278 142.577 39.0571C142.703 38.9863 142.766 38.8632 142.766 38.6877V38.6508C142.766 38.1953 142.641 37.8414 142.392 37.589C142.146 37.3366 141.772 37.2105 141.27 37.2105C140.75 37.2105 140.342 37.3243 140.047 37.5521C139.751 37.7798 139.544 38.023 139.423 38.2815L138.389 37.9122C138.574 37.4813 138.82 37.1458 139.128 36.9058C139.439 36.6626 139.777 36.4934 140.144 36.398C140.513 36.2995 140.876 36.2502 141.233 36.2502C141.461 36.2502 141.722 36.2779 142.018 36.3333C142.316 36.3856 142.604 36.4949 142.881 36.6611C143.161 36.8273 143.394 37.0781 143.578 37.4136C143.763 37.749 143.855 38.1984 143.855 38.7616V43.4335H142.766V42.4732H142.71C142.637 42.6271 142.513 42.7918 142.341 42.9672C142.169 43.1426 141.939 43.2919 141.653 43.415C141.367 43.5381 141.018 43.5997 140.605 43.5997ZM140.771 42.621C141.202 42.621 141.566 42.5363 141.861 42.3671C142.16 42.1978 142.384 41.9793 142.535 41.7115C142.689 41.4438 142.766 41.1622 142.766 40.8667V39.8696C142.72 39.9249 142.618 39.9757 142.461 40.0219C142.307 40.065 142.129 40.1035 141.926 40.1373C141.726 40.1681 141.53 40.1958 141.339 40.2204C141.152 40.2419 140.999 40.2604 140.882 40.2758C140.599 40.3127 140.334 40.3727 140.088 40.4558C139.845 40.5359 139.648 40.6574 139.497 40.8205C139.35 40.9806 139.276 41.1991 139.276 41.4761C139.276 41.8546 139.416 42.1409 139.696 42.3348C139.979 42.5256 140.338 42.621 140.771 42.621ZM148.928 36.3426V37.2659H145.253V36.3426H148.928ZM146.324 34.6437H147.413V41.4022C147.413 41.71 147.458 41.9408 147.547 42.0947C147.64 42.2455 147.757 42.3471 147.898 42.3994C148.043 42.4486 148.195 42.4732 148.355 42.4732C148.475 42.4732 148.574 42.4671 148.651 42.4548C148.728 42.4394 148.789 42.4271 148.835 42.4178L149.057 43.3965C148.983 43.4242 148.88 43.4519 148.748 43.4796C148.615 43.5104 148.448 43.5258 148.244 43.5258C147.937 43.5258 147.635 43.4596 147.34 43.3273C147.047 43.195 146.804 42.9934 146.61 42.7225C146.419 42.4517 146.324 42.1101 146.324 41.6977V34.6437ZM153.724 36.3426V37.2659H149.902V36.3426H153.724ZM151.047 43.4335V35.3639C151.047 34.9576 151.142 34.6191 151.333 34.3482C151.524 34.0774 151.771 33.8743 152.076 33.7389C152.381 33.6035 152.702 33.5357 153.041 33.5357C153.309 33.5357 153.527 33.5573 153.696 33.6004C153.866 33.6435 153.992 33.6835 154.075 33.7204L153.761 34.6622C153.706 34.6437 153.629 34.6206 153.53 34.5929C153.435 34.5652 153.309 34.5514 153.152 34.5514C152.792 34.5514 152.532 34.6422 152.372 34.8237C152.215 35.0053 152.136 35.2715 152.136 35.6224V43.4335H151.047ZM157.84 43.5812C157.2 43.5812 156.638 43.4289 156.155 43.1242C155.675 42.8195 155.299 42.3932 155.028 41.8454C154.761 41.2976 154.627 40.6574 154.627 39.9249C154.627 39.1863 154.761 38.5415 155.028 37.9906C155.299 37.4397 155.675 37.012 156.155 36.7073C156.638 36.4026 157.2 36.2502 157.84 36.2502C158.48 36.2502 159.04 36.4026 159.52 36.7073C160.003 37.012 160.379 37.4397 160.647 37.9906C160.917 38.5415 161.053 39.1863 161.053 39.9249C161.053 40.6574 160.917 41.2976 160.647 41.8454C160.379 42.3932 160.003 42.8195 159.52 43.1242C159.04 43.4289 158.48 43.5812 157.84 43.5812ZM157.84 42.6025C158.326 42.6025 158.726 42.4779 159.04 42.2286C159.354 41.9793 159.586 41.6515 159.737 41.2453C159.888 40.839 159.963 40.3989 159.963 39.9249C159.963 39.451 159.888 39.0093 159.737 38.6C159.586 38.1907 159.354 37.8598 159.04 37.6075C158.726 37.3551 158.326 37.2289 157.84 37.2289C157.353 37.2289 156.953 37.3551 156.639 37.6075C156.326 37.8598 156.093 38.1907 155.942 38.6C155.792 39.0093 155.716 39.451 155.716 39.9249C155.716 40.3989 155.792 40.839 155.942 41.2453C156.093 41.6515 156.326 41.9793 156.639 42.2286C156.953 42.4779 157.353 42.6025 157.84 42.6025ZM162.716 43.4335V36.3426H163.768V37.4136H163.842C163.972 37.0627 164.205 36.7781 164.544 36.5595C164.883 36.341 165.264 36.2318 165.689 36.2318C165.769 36.2318 165.869 36.2333 165.989 36.2364C166.109 36.2395 166.2 36.2441 166.261 36.2502V37.3582C166.224 37.349 166.14 37.3351 166.007 37.3166C165.878 37.2951 165.741 37.2843 165.597 37.2843C165.252 37.2843 164.944 37.3566 164.673 37.5013C164.406 37.6429 164.193 37.8398 164.036 38.0922C163.882 38.3415 163.805 38.6262 163.805 38.9463V43.4335H162.716ZM167.553 43.4335V36.3426H168.605V37.4505H168.698C168.845 37.072 169.084 36.7781 169.413 36.5688C169.743 36.3564 170.138 36.2502 170.6 36.2502C171.068 36.2502 171.457 36.3564 171.768 36.5688C172.082 36.7781 172.326 37.072 172.502 37.4505H172.576C172.757 37.0843 173.03 36.7934 173.393 36.578C173.756 36.3595 174.191 36.2502 174.699 36.2502C175.333 36.2502 175.852 36.4487 176.255 36.8458C176.658 37.2397 176.86 37.8537 176.86 38.6877V43.4335H175.77V38.6877C175.77 38.1645 175.627 37.7906 175.341 37.5659C175.055 37.3413 174.718 37.2289 174.33 37.2289C173.831 37.2289 173.445 37.3797 173.171 37.6813C172.897 37.9799 172.76 38.3584 172.76 38.817V43.4335H171.652V38.5769C171.652 38.1738 171.521 37.8491 171.26 37.6029C170.998 37.3536 170.661 37.2289 170.249 37.2289C169.966 37.2289 169.701 37.3043 169.455 37.4551C169.212 37.6059 169.015 37.8152 168.864 38.083C168.716 38.3477 168.642 38.6539 168.642 39.0017V43.4335H167.553ZM182.139 34.9946V33.9789H189.229V34.9946H186.256V43.4335H185.112V34.9946H182.139ZM190.738 46.0926C190.553 46.0926 190.389 46.0772 190.244 46.0464C190.099 46.0187 189.999 45.991 189.944 45.9633L190.221 45.0031C190.486 45.0708 190.719 45.0954 190.923 45.0769C191.126 45.0585 191.306 44.9677 191.463 44.8046C191.623 44.6445 191.769 44.3845 191.901 44.0244L192.104 43.4704L189.482 36.3426H190.664L192.621 41.9931H192.695L194.653 36.3426H195.835L192.825 44.4676C192.689 44.8338 192.521 45.137 192.321 45.377C192.121 45.6201 191.889 45.8002 191.624 45.9171C191.363 46.0341 191.067 46.0926 190.738 46.0926ZM197.273 46.0926V36.3426H198.325V37.469H198.454C198.534 37.3459 198.645 37.1889 198.787 36.9981C198.931 36.8042 199.138 36.6319 199.405 36.4811C199.676 36.3272 200.042 36.2502 200.504 36.2502C201.101 36.2502 201.627 36.3995 202.083 36.698C202.538 36.9966 202.894 37.4197 203.149 37.9676C203.405 38.5154 203.532 39.1617 203.532 39.9065C203.532 40.6574 203.405 41.3084 203.149 41.8593C202.894 42.4071 202.54 42.8318 202.088 43.1334C201.635 43.4319 201.113 43.5812 200.523 43.5812C200.067 43.5812 199.702 43.5058 199.428 43.355C199.155 43.2011 198.944 43.0272 198.796 42.8333C198.648 42.6364 198.534 42.4732 198.454 42.344H198.362V46.0926H197.273ZM198.344 39.888C198.344 40.4235 198.422 40.8959 198.579 41.3053C198.736 41.7115 198.965 42.0301 199.267 42.2609C199.568 42.4886 199.938 42.6025 200.375 42.6025C200.83 42.6025 201.21 42.4825 201.515 42.2424C201.823 41.9993 202.054 41.6731 202.208 41.2637C202.365 40.8513 202.443 40.3928 202.443 39.888C202.443 39.3894 202.366 38.9401 202.212 38.54C202.061 38.1368 201.832 37.8183 201.524 37.5844C201.22 37.3474 200.836 37.2289 200.375 37.2289C199.932 37.2289 199.559 37.3413 199.258 37.5659C198.956 37.7875 198.728 38.0984 198.574 38.4985C198.421 38.8955 198.344 39.3587 198.344 39.888ZM208.167 43.5812C207.484 43.5812 206.895 43.4304 206.399 43.1288C205.907 42.8241 205.527 42.3994 205.259 41.8546C204.994 41.3068 204.862 40.6697 204.862 39.9434C204.862 39.2171 204.994 38.5769 205.259 38.023C205.527 37.4659 205.899 37.032 206.376 36.7211C206.856 36.4072 207.416 36.2502 208.057 36.2502C208.426 36.2502 208.791 36.3118 209.151 36.4349C209.511 36.558 209.839 36.758 210.134 37.035C210.43 37.3089 210.665 37.6721 210.84 38.1245C211.016 38.5769 211.104 39.134 211.104 39.7957V40.2573H205.638V39.3156H209.996C209.996 38.9155 209.916 38.5585 209.756 38.2446C209.599 37.9306 209.374 37.6829 209.081 37.5013C208.792 37.3197 208.451 37.2289 208.057 37.2289C207.623 37.2289 207.247 37.3366 206.93 37.5521C206.616 37.7644 206.375 38.0414 206.205 38.383C206.036 38.7247 205.952 39.0909 205.952 39.4818V40.1096C205.952 40.6451 206.044 41.0991 206.229 41.4715C206.416 41.8408 206.676 42.1224 207.009 42.3163C207.341 42.5071 207.727 42.6025 208.167 42.6025C208.454 42.6025 208.712 42.5625 208.943 42.4825C209.177 42.3994 209.378 42.2763 209.548 42.1132C209.717 41.947 209.848 41.7408 209.94 41.4946L210.993 41.79C210.882 42.147 210.696 42.4609 210.434 42.7318C210.173 42.9995 209.849 43.2088 209.465 43.3596C209.08 43.5073 208.648 43.5812 208.167 43.5812Z" fill="#7C89A9"/>
<path d="M52.7139 263.282V270.555H51.8332V263.282H52.7139ZM55.3041 267.273V270.555H54.4661V265.1H55.2757V265.952H55.3468C55.4746 265.675 55.6687 265.453 55.9291 265.285C56.1896 265.114 56.5257 265.029 56.9377 265.029C57.4893 265.029 57.9343 265.198 58.2729 265.537C58.6138 265.875 58.7843 266.393 58.7843 267.089V270.555H57.9462V267.146C57.9462 266.717 57.8349 266.383 57.6124 266.144C57.3898 265.903 57.0844 265.782 56.6962 265.782C56.2961 265.782 55.9635 265.912 55.6983 266.173C55.4355 266.431 55.3041 266.798 55.3041 267.273ZM64.2793 266.322L63.5265 266.535C63.4531 266.345 63.33 266.168 63.1572 266.002C62.9843 265.836 62.7144 265.754 62.3475 265.754C62.0137 265.754 61.7355 265.83 61.513 265.984C61.2928 266.136 61.1827 266.329 61.1827 266.563C61.1827 266.772 61.2585 266.936 61.41 267.057C61.5615 267.178 61.7983 267.278 62.1202 267.359L62.9299 267.558C63.8958 267.794 64.3787 268.287 64.3787 269.035C64.3787 269.347 64.2888 269.627 64.1089 269.873C63.9313 270.119 63.6827 270.313 63.3631 270.455C63.0435 270.597 62.6718 270.668 62.2481 270.668C61.6917 270.668 61.2313 270.548 60.8667 270.306C60.5021 270.065 60.2713 269.712 60.1742 269.248L60.9697 269.049C61.1188 269.636 61.5402 269.93 62.2339 269.93C62.6245 269.93 62.9346 269.847 63.1643 269.681C63.3963 269.513 63.5123 269.312 63.5123 269.077C63.5123 268.692 63.2424 268.436 62.7026 268.31L61.7935 268.097C61.294 267.979 60.927 267.795 60.6927 267.547C60.4607 267.296 60.3447 266.982 60.3447 266.606C60.3447 266.298 60.4311 266.026 60.6039 265.789C60.7791 265.552 61.017 265.366 61.3177 265.232C61.6207 265.097 61.964 265.029 62.3475 265.029C62.8873 265.029 63.311 265.147 63.6188 265.384C63.9289 265.621 64.1491 265.933 64.2793 266.322ZM68.1124 265.1V265.81H66.9477V268.992C66.9477 269.229 66.982 269.406 67.0507 269.525C67.1217 269.641 67.2116 269.719 67.3205 269.759C67.4318 269.797 67.549 269.816 67.6721 269.816C67.7644 269.816 67.8402 269.811 67.8994 269.802C67.9586 269.79 68.0059 269.781 68.0414 269.773L68.2119 270.526C68.1551 270.548 68.0758 270.569 67.974 270.59C67.8722 270.614 67.7431 270.626 67.5869 270.626C67.3501 270.626 67.1181 270.575 66.8909 270.473C66.666 270.371 66.4789 270.216 66.3298 270.008C66.183 269.799 66.1096 269.537 66.1096 269.219V265.81H65.2857V265.1H66.1096V263.793H66.9477V265.1H68.1124ZM71.0782 270.683C70.7326 270.683 70.4189 270.617 70.1372 270.487C69.8554 270.355 69.6317 270.164 69.466 269.915C69.3003 269.665 69.2174 269.362 69.2174 269.006C69.2174 268.694 69.279 268.441 69.4021 268.246C69.5252 268.05 69.6897 267.896 69.8957 267.785C70.1017 267.674 70.3289 267.591 70.5775 267.536C70.8285 267.479 71.0806 267.434 71.3339 267.401C71.6653 267.359 71.934 267.327 72.14 267.305C72.3483 267.282 72.4999 267.243 72.5945 267.188C72.6916 267.134 72.7401 267.039 72.7401 266.904V266.876C72.7401 266.525 72.6443 266.253 72.4525 266.059C72.2631 265.865 71.9755 265.768 71.5896 265.768C71.1895 265.768 70.8758 265.855 70.6485 266.031C70.4213 266.206 70.2615 266.393 70.1691 266.592L69.3737 266.308C69.5157 265.976 69.7051 265.718 69.9419 265.533C70.181 265.346 70.4414 265.216 70.7231 265.143C71.0072 265.067 71.2865 265.029 71.5612 265.029C71.7364 265.029 71.9376 265.05 72.1649 265.093C72.3945 265.133 72.6159 265.217 72.8289 265.345C73.0444 265.473 73.2231 265.666 73.3651 265.924C73.5072 266.182 73.5782 266.528 73.5782 266.961V270.555H72.7401V269.816H72.6975C72.6407 269.934 72.546 270.061 72.4134 270.196C72.2809 270.331 72.1045 270.446 71.8843 270.54C71.6642 270.635 71.3954 270.683 71.0782 270.683ZM71.2061 269.93C71.5375 269.93 71.8169 269.865 72.0441 269.734C72.2738 269.604 72.4466 269.436 72.5626 269.23C72.681 269.024 72.7401 268.808 72.7401 268.58V267.813C72.7046 267.856 72.6265 267.895 72.5058 267.93C72.3874 267.964 72.2501 267.993 72.0938 268.019C71.94 268.043 71.7896 268.064 71.6428 268.083C71.4984 268.1 71.3812 268.114 71.2913 268.126C71.0735 268.154 70.8699 268.2 70.6805 268.264C70.4935 268.326 70.3419 268.419 70.2259 268.545C70.1123 268.668 70.0555 268.836 70.0555 269.049C70.0555 269.34 70.1632 269.56 70.3786 269.71C70.5964 269.856 70.8722 269.93 71.2061 269.93ZM77.4096 272.714C76.8011 272.714 76.3194 272.603 75.9643 272.38C75.6115 272.16 75.3499 271.906 75.1795 271.62L75.8471 271.151C75.9228 271.251 76.0187 271.364 76.1347 271.492C76.2507 271.622 76.4093 271.735 76.6106 271.83C76.8142 271.927 77.0805 271.975 77.4096 271.975C77.8499 271.975 78.2133 271.869 78.4998 271.656C78.7862 271.442 78.9295 271.109 78.9295 270.654V269.546H78.8584C78.7969 269.646 78.7093 269.769 78.5957 269.915C78.4844 270.06 78.3234 270.189 78.1127 270.303C77.9044 270.414 77.6226 270.469 77.2675 270.469C76.8272 270.469 76.4318 270.365 76.0814 270.157C75.7334 269.949 75.4576 269.646 75.254 269.248C75.0528 268.85 74.9522 268.367 74.9522 267.799C74.9522 267.24 75.0504 266.754 75.2469 266.339C75.4434 265.923 75.7169 265.601 76.0672 265.374C76.4176 265.144 76.8224 265.029 77.2817 265.029C77.6368 265.029 77.9186 265.088 78.1269 265.207C78.3376 265.323 78.4986 265.455 78.6099 265.604C78.7235 265.751 78.8111 265.872 78.8726 265.967H78.9579V265.1H79.7675V270.711C79.7675 271.18 79.661 271.561 79.4479 271.854C79.2372 272.15 78.9531 272.367 78.5957 272.504C78.2405 272.644 77.8452 272.714 77.4096 272.714ZM77.3812 269.717C77.8854 269.717 78.2713 269.546 78.5388 269.205C78.8087 268.862 78.9437 268.388 78.9437 267.785C78.9437 267.195 78.8111 266.715 78.5459 266.343C78.2808 265.969 77.8925 265.782 77.3812 265.782C77.026 265.782 76.7301 265.872 76.4934 266.052C76.259 266.232 76.0826 266.473 75.9643 266.776C75.8483 267.079 75.7903 267.415 75.7903 267.785C75.7903 268.353 75.924 268.817 76.1915 269.177C76.459 269.537 76.8556 269.717 77.3812 269.717ZM81.4016 270.555V265.1H82.2113V265.924H82.2681C82.3652 265.654 82.5439 265.435 82.8043 265.267C83.0647 265.099 83.3595 265.015 83.6885 265.015C83.8401 265.015 83.9726 265.033 84.0863 265.068C84.1999 265.104 84.2993 265.152 84.3846 265.214L84.1005 265.924C84.0413 265.893 83.9715 265.87 83.891 265.853C83.8128 265.834 83.7217 265.825 83.6175 265.825C83.2198 265.825 82.8907 265.946 82.6303 266.19C82.3699 266.432 82.2397 266.736 82.2397 267.103V270.555H81.4016ZM86.9446 270.683C86.599 270.683 86.2853 270.617 86.0036 270.487C85.7218 270.355 85.4981 270.164 85.3324 269.915C85.1667 269.665 85.0838 269.362 85.0838 269.006C85.0838 268.694 85.1454 268.441 85.2685 268.246C85.3916 268.05 85.5561 267.896 85.7621 267.785C85.9681 267.674 86.1953 267.591 86.4439 267.536C86.6949 267.479 86.947 267.434 87.2003 267.401C87.5317 267.359 87.8004 267.327 88.0064 267.305C88.2147 267.282 88.3663 267.243 88.461 267.188C88.558 267.134 88.6066 267.039 88.6066 266.904V266.876C88.6066 266.525 88.5107 266.253 88.3189 266.059C88.1295 265.865 87.8419 265.768 87.456 265.768C87.0559 265.768 86.7422 265.855 86.5149 266.031C86.2877 266.206 86.1279 266.393 86.0355 266.592L85.2401 266.308C85.3821 265.976 85.5715 265.718 85.8083 265.533C86.0474 265.346 86.3078 265.216 86.5895 265.143C86.8736 265.067 87.153 265.029 87.4276 265.029C87.6028 265.029 87.804 265.05 88.0313 265.093C88.2609 265.133 88.4823 265.217 88.6953 265.345C88.9108 265.473 89.0895 265.666 89.2316 265.924C89.3736 266.182 89.4446 266.528 89.4446 266.961V270.555H88.6066V269.816H88.5639C88.5071 269.934 88.4124 270.061 88.2799 270.196C88.1473 270.331 87.9709 270.446 87.7507 270.54C87.5306 270.635 87.2619 270.683 86.9446 270.683ZM87.0725 269.93C87.4039 269.93 87.6833 269.865 87.9105 269.734C88.1402 269.604 88.313 269.436 88.429 269.23C88.5474 269.024 88.6066 268.808 88.6066 268.58V267.813C88.571 267.856 88.4929 267.895 88.3722 267.93C88.2538 267.964 88.1165 267.993 87.9602 268.019C87.8064 268.043 87.656 268.064 87.5093 268.083C87.3648 268.1 87.2477 268.114 87.1577 268.126C86.9399 268.154 86.7363 268.2 86.5469 268.264C86.3599 268.326 86.2084 268.419 86.0924 268.545C85.9787 268.668 85.9219 268.836 85.9219 269.049C85.9219 269.34 86.0296 269.56 86.245 269.71C86.4629 269.856 86.7387 269.93 87.0725 269.93ZM91.0743 270.555V265.1H91.8839V265.952H91.955C92.0686 265.661 92.2521 265.435 92.5054 265.274C92.7587 265.111 93.0629 265.029 93.418 265.029C93.7779 265.029 94.0774 265.111 94.3165 265.274C94.5579 265.435 94.7461 265.661 94.8811 265.952H94.9379C95.0776 265.671 95.2871 265.447 95.5665 265.281C95.8458 265.113 96.1808 265.029 96.5714 265.029C97.0591 265.029 97.458 265.182 97.7682 265.487C98.0783 265.79 98.2334 266.263 98.2334 266.904V270.555H97.3953V266.904C97.3953 266.502 97.2852 266.214 97.065 266.041C96.8449 265.868 96.5856 265.782 96.2873 265.782C95.9038 265.782 95.6067 265.898 95.396 266.13C95.1853 266.36 95.08 266.651 95.08 267.004V270.555H94.2277V266.819C94.2277 266.509 94.1271 266.259 93.9258 266.07C93.7246 265.878 93.4654 265.782 93.1481 265.782C92.9303 265.782 92.7267 265.84 92.5373 265.956C92.3503 266.072 92.1988 266.233 92.0828 266.439C91.9692 266.643 91.9123 266.878 91.9123 267.146V270.555H91.0743Z" fill="#7C89A9"/>
<path d="M129.309 270.555H127.065V263.282H129.409C130.114 263.282 130.718 263.428 131.22 263.719C131.722 264.008 132.106 264.423 132.374 264.965C132.642 265.505 132.775 266.151 132.775 266.904C132.775 267.662 132.64 268.314 132.37 268.861C132.101 269.405 131.708 269.824 131.191 270.118C130.675 270.409 130.048 270.555 129.309 270.555ZM127.946 269.773H129.253C130.155 269.773 130.825 269.518 131.263 269.006C131.703 268.493 131.923 267.792 131.923 266.904C131.923 266.023 131.708 265.33 131.277 264.823C130.846 264.317 130.204 264.063 129.352 264.063H127.946V269.773ZM134.239 270.555V265.1H135.049V265.924H135.105C135.205 265.654 135.385 265.435 135.645 265.267C135.906 265.099 136.199 265.015 136.526 265.015C136.587 265.015 136.664 265.016 136.757 265.018C136.849 265.021 136.919 265.024 136.966 265.029V265.881C136.938 265.874 136.873 265.864 136.771 265.849C136.671 265.833 136.566 265.825 136.455 265.825C136.057 265.825 135.728 265.945 135.468 266.187C135.207 266.428 135.077 266.734 135.077 267.103V270.555H134.239ZM138.06 270.555V265.1H138.898V270.555H138.06ZM138.486 264.191C138.322 264.191 138.182 264.135 138.063 264.024C137.947 263.913 137.889 263.779 137.889 263.623C137.889 263.467 137.947 263.333 138.063 263.222C138.182 263.11 138.322 263.055 138.486 263.055C138.649 263.055 138.789 263.11 138.905 263.222C139.023 263.333 139.082 263.467 139.082 263.623C139.082 263.779 139.023 263.913 138.905 264.024C138.789 264.135 138.649 264.191 138.486 264.191ZM140.646 270.555V263.282H141.484V265.967H141.555C141.617 265.872 141.702 265.751 141.811 265.604C141.922 265.455 142.081 265.323 142.287 265.207C142.495 265.088 142.777 265.029 143.132 265.029C143.591 265.029 143.996 265.144 144.347 265.374C144.697 265.603 144.97 265.929 145.167 266.35C145.363 266.772 145.462 267.269 145.462 267.842C145.462 268.419 145.363 268.92 145.167 269.344C144.97 269.765 144.698 270.092 144.35 270.324C144.002 270.554 143.601 270.668 143.146 270.668C142.796 270.668 142.515 270.61 142.305 270.494C142.094 270.376 141.932 270.242 141.818 270.093C141.705 269.942 141.617 269.816 141.555 269.717H141.456V270.555H140.646ZM141.47 267.827C141.47 268.445 141.604 268.948 141.871 269.337C142.141 269.723 142.528 269.915 143.033 269.915C143.383 269.915 143.675 269.823 143.91 269.638C144.147 269.451 144.324 269.201 144.442 268.886C144.563 268.568 144.624 268.216 144.624 267.827C144.624 267.444 144.564 267.098 144.446 266.79C144.33 266.48 144.154 266.235 143.917 266.055C143.683 265.873 143.388 265.782 143.033 265.782C142.521 265.782 142.133 265.97 141.868 266.347C141.603 266.723 141.47 267.217 141.47 267.827ZM146.957 270.555V263.282H147.795V265.967H147.866C147.928 265.872 148.013 265.751 148.122 265.604C148.233 265.455 148.392 265.323 148.598 265.207C148.806 265.088 149.088 265.029 149.443 265.029C149.902 265.029 150.307 265.144 150.658 265.374C151.008 265.603 151.281 265.929 151.478 266.35C151.674 266.772 151.773 267.269 151.773 267.842C151.773 268.419 151.674 268.92 151.478 269.344C151.281 269.765 151.009 270.092 150.661 270.324C150.313 270.554 149.912 270.668 149.457 270.668C149.107 270.668 148.826 270.61 148.616 270.494C148.405 270.376 148.243 270.242 148.129 270.093C148.015 269.942 147.928 269.816 147.866 269.717H147.767V270.555H146.957ZM147.781 267.827C147.781 268.445 147.915 268.948 148.182 269.337C148.452 269.723 148.839 269.915 149.344 269.915C149.694 269.915 149.986 269.823 150.221 269.638C150.457 269.451 150.635 269.201 150.753 268.886C150.874 268.568 150.935 268.216 150.935 267.827C150.935 267.444 150.875 267.098 150.757 266.79C150.641 266.48 150.465 266.235 150.228 266.055C149.993 265.873 149.699 265.782 149.344 265.782C148.832 265.782 148.444 265.97 148.179 266.347C147.914 266.723 147.781 267.217 147.781 267.827ZM153.993 263.282V270.555H153.155V263.282H153.993ZM157.915 270.668C157.389 270.668 156.936 270.552 156.554 270.32C156.176 270.086 155.883 269.759 155.677 269.34C155.474 268.919 155.372 268.429 155.372 267.87C155.372 267.311 155.474 266.819 155.677 266.393C155.883 265.964 156.17 265.63 156.537 265.391C156.906 265.15 157.337 265.029 157.829 265.029C158.113 265.029 158.394 265.076 158.671 265.171C158.948 265.266 159.2 265.42 159.427 265.633C159.655 265.844 159.836 266.123 159.971 266.471C160.106 266.819 160.173 267.247 160.173 267.756V268.112H156.214C156.232 268.694 156.397 269.14 156.707 269.45C157.02 269.76 157.422 269.915 157.915 269.915C158.244 269.915 158.527 269.844 158.763 269.702C159 269.56 159.172 269.347 159.278 269.063L160.088 269.29C159.96 269.702 159.704 270.035 159.321 270.288C158.937 270.542 158.469 270.668 157.915 270.668ZM156.214 267.387H159.321C159.321 266.925 159.186 266.543 158.916 266.24C158.646 265.935 158.284 265.782 157.829 265.782C157.51 265.782 157.233 265.857 156.998 266.006C156.764 266.155 156.579 266.353 156.444 266.599C156.309 266.843 156.232 267.105 156.214 267.387Z" fill="#7C89A9"/>
<path d="M194.832 264.063V263.282H200.287V264.063H198V270.555H197.119V264.063H194.832ZM202.243 270.555L200.581 265.1H201.462L202.641 269.276H202.698L203.863 265.1H204.757L205.908 269.262H205.965L207.144 265.1H208.025L206.363 270.555H205.539L204.346 266.364H204.26L203.067 270.555H202.243ZM209.232 270.555V265.1H210.071V270.555H209.232ZM209.659 264.191C209.495 264.191 209.354 264.135 209.236 264.024C209.12 263.913 209.062 263.779 209.062 263.623C209.062 263.467 209.12 263.333 209.236 263.222C209.354 263.11 209.495 263.055 209.659 263.055C209.822 263.055 209.962 263.11 210.078 263.222C210.196 263.333 210.255 263.467 210.255 263.623C210.255 263.779 210.196 263.913 210.078 264.024C209.962 264.135 209.822 264.191 209.659 264.191ZM214.078 265.1V265.81H212.913V268.992C212.913 269.229 212.947 269.406 213.016 269.525C213.087 269.641 213.177 269.719 213.286 269.759C213.397 269.797 213.514 269.816 213.637 269.816C213.73 269.816 213.805 269.811 213.865 269.802C213.924 269.79 213.971 269.781 214.007 269.773L214.177 270.526C214.12 270.548 214.041 270.569 213.939 270.59C213.837 270.614 213.708 270.626 213.552 270.626C213.315 270.626 213.083 270.575 212.856 270.473C212.631 270.371 212.444 270.216 212.295 270.008C212.148 269.799 212.075 269.537 212.075 269.219V265.81H211.251V265.1H212.075V263.793H212.913V265.1H214.078ZM217.81 265.1V265.81H216.646V268.992C216.646 269.229 216.68 269.406 216.749 269.525C216.82 269.641 216.91 269.719 217.019 269.759C217.13 269.797 217.247 269.816 217.37 269.816C217.462 269.816 217.538 269.811 217.597 269.802C217.657 269.79 217.704 269.781 217.739 269.773L217.91 270.526C217.853 270.548 217.774 270.569 217.672 270.59C217.57 270.614 217.441 270.626 217.285 270.626C217.048 270.626 216.816 270.575 216.589 270.473C216.364 270.371 216.177 270.216 216.028 270.008C215.881 269.799 215.808 269.537 215.808 269.219V265.81H214.984V265.1H215.808V263.793H216.646V265.1H217.81ZM221.399 270.668C220.874 270.668 220.421 270.552 220.039 270.32C219.661 270.086 219.368 269.759 219.162 269.34C218.959 268.919 218.857 268.429 218.857 267.87C218.857 267.311 218.959 266.819 219.162 266.393C219.368 265.964 219.655 265.63 220.022 265.391C220.391 265.15 220.822 265.029 221.314 265.029C221.598 265.029 221.879 265.076 222.156 265.171C222.433 265.266 222.685 265.42 222.912 265.633C223.14 265.844 223.321 266.123 223.456 266.471C223.591 266.819 223.658 267.247 223.658 267.756V268.112H219.698C219.717 268.694 219.882 269.14 220.192 269.45C220.505 269.76 220.907 269.915 221.399 269.915C221.729 269.915 222.011 269.844 222.248 269.702C222.485 269.56 222.657 269.347 222.763 269.063L223.573 269.29C223.445 269.702 223.189 270.035 222.806 270.288C222.422 270.542 221.953 270.668 221.399 270.668ZM219.698 267.387H222.806C222.806 266.925 222.671 266.543 222.401 266.24C222.131 265.935 221.769 265.782 221.314 265.782C220.995 265.782 220.718 265.857 220.483 266.006C220.249 266.155 220.064 266.353 219.929 266.599C219.794 266.843 219.717 267.105 219.698 267.387ZM225.033 270.555V265.1H225.843V265.924H225.899C225.996 265.654 226.175 265.435 226.436 265.267C226.696 265.099 226.991 265.015 227.32 265.015C227.471 265.015 227.604 265.033 227.718 265.068C227.831 265.104 227.931 265.152 228.016 265.214L227.732 265.924C227.673 265.893 227.603 265.87 227.522 265.853C227.444 265.834 227.353 265.825 227.249 265.825C226.851 265.825 226.522 265.946 226.262 266.19C226.001 266.432 225.871 266.736 225.871 267.103V270.555H225.033Z" fill="#7C89A9"/>
<circle cx="43.4225" cy="266.865" r="3.34044" fill="#703FFB"/>
<circle cx="119.883" cy="266.865" r="3.34044" fill="#DE287A"/>
<circle cx="188.176" cy="266.865" r="3.34044" fill="#FCAE56"/>
<circle cx="136.216" cy="153.286" r="27.0947" stroke="#F0F3F9" stroke-width="5.93856"/>
<circle cx="136.217" cy="153.286" r="52.3336" stroke="#F0F3F9" stroke-width="5.93856"/>
<circle cx="136.218" cy="153.287" r="77.5725" stroke="#F0F3F9" stroke-width="5.93856"/>
<mask id="path-12-inside-1_27_142" fill="white">
<path d="M132.547 75.7998C132.469 74.1627 133.734 72.767 135.372 72.7498C150.532 72.5905 165.452 76.7144 178.401 84.6759C192.194 93.1562 203.111 105.597 209.728 120.375C216.344 135.153 218.353 151.582 215.492 167.518C212.631 183.455 205.033 198.159 193.69 209.713C182.346 221.267 167.784 229.134 151.903 232.287C136.021 235.44 119.558 233.733 104.661 227.389C89.764 221.046 77.125 210.359 68.3927 196.724C60.1947 183.923 55.7975 169.082 55.6783 153.921C55.6654 152.283 57.0376 150.993 58.6759 151.04V151.04C60.3141 151.088 61.5975 152.455 61.6152 154.093C61.766 168.061 65.8362 181.727 73.3907 193.523C81.4794 206.153 93.1871 216.053 106.986 221.929C120.786 227.805 136.036 229.386 150.747 226.465C165.458 223.545 178.947 216.258 189.455 205.555C199.962 194.853 207 181.232 209.65 166.47C212.3 151.707 210.44 136.489 204.311 122.8C198.182 109.111 188.07 97.5872 175.293 89.7318C163.36 82.3952 149.621 78.5768 135.653 78.6825C134.014 78.6949 132.624 77.4369 132.547 75.7998V75.7998Z"/>
</mask>
<path d="M132.547 75.7998C132.469 74.1627 133.734 72.767 135.372 72.7498C150.532 72.5905 165.452 76.7144 178.401 84.6759C192.194 93.1562 203.111 105.597 209.728 120.375C216.344 135.153 218.353 151.582 215.492 167.518C212.631 183.455 205.033 198.159 193.69 209.713C182.346 221.267 167.784 229.134 151.903 232.287C136.021 235.44 119.558 233.733 104.661 227.389C89.764 221.046 77.125 210.359 68.3927 196.724C60.1947 183.923 55.7975 169.082 55.6783 153.921C55.6654 152.283 57.0376 150.993 58.6759 151.04V151.04C60.3141 151.088 61.5975 152.455 61.6152 154.093C61.766 168.061 65.8362 181.727 73.3907 193.523C81.4794 206.153 93.1871 216.053 106.986 221.929C120.786 227.805 136.036 229.386 150.747 226.465C165.458 223.545 178.947 216.258 189.455 205.555C199.962 194.853 207 181.232 209.65 166.47C212.3 151.707 210.44 136.489 204.311 122.8C198.182 109.111 188.07 97.5872 175.293 89.7318C163.36 82.3952 149.621 78.5768 135.653 78.6825C134.014 78.6949 132.624 77.4369 132.547 75.7998V75.7998Z" stroke="#703FFB" stroke-width="11.8771" mask="url(#path-12-inside-1_27_142)"/>
<mask id="path-13-inside-2_27_142" fill="white">
<path d="M133.08 126.371C132.89 124.743 134.057 123.255 135.696 123.226C138.921 123.17 142.142 123.634 145.231 124.605C149.267 125.874 152.989 127.98 156.155 130.785C159.321 133.59 161.859 137.032 163.604 140.886C165.349 144.74 166.261 148.918 166.28 153.148C166.299 157.378 165.426 161.565 163.717 165.434C162.007 169.303 159.501 172.768 156.361 175.603C153.221 178.437 149.518 180.577 145.494 181.882C142.413 182.882 139.197 183.375 135.971 183.349C134.333 183.335 133.152 181.858 133.327 180.228V180.228C133.502 178.599 134.967 177.439 136.605 177.413C138.998 177.374 141.377 176.98 143.663 176.238C146.892 175.19 149.864 173.473 152.385 171.198C154.905 168.923 156.917 166.142 158.289 163.036C159.661 159.931 160.362 156.57 160.346 153.175C160.331 149.78 159.599 146.426 158.198 143.333C156.798 140.24 154.761 137.478 152.22 135.226C149.679 132.974 146.691 131.284 143.452 130.266C141.159 129.545 138.777 129.173 136.384 129.156C134.746 129.145 133.27 127.998 133.08 126.371V126.371Z"/>
</mask>
<path d="M133.08 126.371C132.89 124.743 134.057 123.255 135.696 123.226C138.921 123.17 142.142 123.634 145.231 124.605C149.267 125.874 152.989 127.98 156.155 130.785C159.321 133.59 161.859 137.032 163.604 140.886C165.349 144.74 166.261 148.918 166.28 153.148C166.299 157.378 165.426 161.565 163.717 165.434C162.007 169.303 159.501 172.768 156.361 175.603C153.221 178.437 149.518 180.577 145.494 181.882C142.413 182.882 139.197 183.375 135.971 183.349C134.333 183.335 133.152 181.858 133.327 180.228V180.228C133.502 178.599 134.967 177.439 136.605 177.413C138.998 177.374 141.377 176.98 143.663 176.238C146.892 175.19 149.864 173.473 152.385 171.198C154.905 168.923 156.917 166.142 158.289 163.036C159.661 159.931 160.362 156.57 160.346 153.175C160.331 149.78 159.599 146.426 158.198 143.333C156.798 140.24 154.761 137.478 152.22 135.226C149.679 132.974 146.691 131.284 143.452 130.266C141.159 129.545 138.777 129.173 136.384 129.156C134.746 129.145 133.27 127.998 133.08 126.371V126.371Z" stroke="#FCAE56" stroke-width="11.8771" mask="url(#path-13-inside-2_27_142)"/>
<mask id="path-14-inside-3_27_142" fill="white">
<path d="M132.656 101.073C132.544 99.4372 133.78 98.0127 135.419 97.989C143.847 97.8674 152.205 99.674 159.849 103.287C168.389 107.323 175.753 113.48 181.239 121.17C186.724 128.86 190.149 137.826 191.186 147.215C192.222 156.604 190.837 166.102 187.162 174.804C183.487 183.505 177.644 191.12 170.191 196.923C162.737 202.726 153.922 206.523 144.585 207.952C135.248 209.382 125.7 208.395 116.852 205.088C108.933 202.127 101.81 197.395 96.0209 191.269C94.8951 190.077 95.0546 188.198 96.3047 187.138V187.138C97.5548 186.078 99.4215 186.239 100.555 187.423C105.683 192.78 111.961 196.922 118.931 199.528C126.829 202.48 135.352 203.36 143.687 202.085C152.022 200.809 159.891 197.419 166.544 192.239C173.197 187.059 178.413 180.262 181.694 172.494C184.974 164.726 186.211 156.248 185.285 147.867C184.36 139.486 181.303 131.482 176.406 124.617C171.509 117.753 164.936 112.257 157.313 108.654C150.585 105.474 143.238 103.862 135.823 103.921C134.184 103.934 132.767 102.708 132.656 101.073V101.073Z"/>
</mask>
<path d="M132.656 101.073C132.544 99.4372 133.78 98.0127 135.419 97.989C143.847 97.8674 152.205 99.674 159.849 103.287C168.389 107.323 175.753 113.48 181.239 121.17C186.724 128.86 190.149 137.826 191.186 147.215C192.222 156.604 190.837 166.102 187.162 174.804C183.487 183.505 177.644 191.12 170.191 196.923C162.737 202.726 153.922 206.523 144.585 207.952C135.248 209.382 125.7 208.395 116.852 205.088C108.933 202.127 101.81 197.395 96.0209 191.269C94.8951 190.077 95.0546 188.198 96.3047 187.138V187.138C97.5548 186.078 99.4215 186.239 100.555 187.423C105.683 192.78 111.961 196.922 118.931 199.528C126.829 202.48 135.352 203.36 143.687 202.085C152.022 200.809 159.891 197.419 166.544 192.239C173.197 187.059 178.413 180.262 181.694 172.494C184.974 164.726 186.211 156.248 185.285 147.867C184.36 139.486 181.303 131.482 176.406 124.617C171.509 117.753 164.936 112.257 157.313 108.654C150.585 105.474 143.238 103.862 135.823 103.921C134.184 103.934 132.767 102.708 132.656 101.073V101.073Z" stroke="#DE287A" stroke-width="11.8771" mask="url(#path-14-inside-3_27_142)"/>
<g filter="url(#filter0_d_27_142)">
<rect x="20.043" y="103.924" width="74.232" height="34.1467" rx="4" fill="white"/>
</g>
<path d="M33.8904 126.619L33.8953 125.48C32.8712 125.397 32.0558 125.086 31.4493 124.545C30.8461 124.005 30.5279 123.269 30.4948 122.338H32.3094C32.3392 122.789 32.5016 123.142 32.7966 123.397C33.0916 123.652 33.4611 123.815 33.9053 123.884L33.9252 120.876L33.4777 120.762C32.6392 120.547 31.9763 120.22 31.4891 119.783C31.0052 119.342 30.7632 118.757 30.7632 118.028C30.7632 117.481 30.8991 116.995 31.1709 116.571C31.446 116.143 31.8238 115.799 32.3044 115.537C32.7883 115.275 33.3418 115.113 33.9649 115.05L33.9699 113.891H35.0239L35.0189 115.05C35.6453 115.109 36.1922 115.27 36.6595 115.532C37.1302 115.79 37.4964 116.128 37.7583 116.546C38.0234 116.964 38.161 117.436 38.1709 117.963H36.396C36.3563 117.605 36.2137 117.312 35.9685 117.083C35.7265 116.851 35.4067 116.7 35.009 116.631L34.9891 119.469L35.3172 119.554C35.8276 119.673 36.3099 119.851 36.7639 120.086C37.2213 120.318 37.5925 120.629 37.8776 121.021C38.1659 121.408 38.3101 121.897 38.3101 122.487C38.3068 123.322 38.0118 124.012 37.4252 124.555C36.8418 125.096 36.0165 125.404 34.9493 125.48L34.9443 126.619H33.8904ZM34.9593 123.884C35.4166 123.811 35.7812 123.651 36.053 123.402C36.3248 123.15 36.4623 122.84 36.4656 122.472C36.4623 122.121 36.3264 121.847 36.058 121.652C35.7895 121.453 35.4299 121.287 34.9791 121.155L34.9593 123.884ZM33.9351 119.201L33.955 116.631C33.5374 116.704 33.2126 116.856 32.9806 117.088C32.7519 117.317 32.6359 117.592 32.6325 117.913C32.6292 118.268 32.7585 118.545 33.0203 118.744C33.2855 118.939 33.5904 119.092 33.9351 119.201ZM43.7528 115.164V125.346H41.9033V117.521H41.8188C41.7194 117.676 41.4874 117.842 41.1228 118.018C40.7582 118.19 40.2892 118.276 39.7158 118.276V116.785C40.0671 116.785 40.3804 116.723 40.6555 116.601C40.9305 116.475 41.1642 116.322 41.3564 116.143C41.552 115.961 41.7028 115.78 41.8089 115.602C41.9149 115.423 41.9729 115.277 41.9829 115.164H43.7528ZM50.0033 125.485C49.2874 125.485 48.651 125.362 48.0942 125.117C47.5407 124.872 47.1015 124.53 46.7767 124.093C46.4552 123.655 46.2862 123.15 46.2696 122.577H48.1389C48.1621 122.991 48.3494 123.322 48.7007 123.571C49.0554 123.816 49.4879 123.939 49.9983 123.939C50.5419 123.939 50.9893 123.8 51.3406 123.521C51.692 123.24 51.866 122.873 51.8627 122.423C51.866 121.962 51.6853 121.586 51.3208 121.294C50.9595 121.002 50.4574 120.856 49.8144 120.856H48.9145V119.435H49.8144C50.3414 119.435 50.7706 119.299 51.102 119.027C51.4368 118.755 51.6025 118.397 51.5992 117.953C51.6025 117.526 51.4583 117.181 51.1666 116.919C50.8783 116.654 50.4971 116.521 50.0232 116.521C49.5525 116.521 49.1449 116.646 48.8002 116.894C48.4555 117.143 48.2748 117.481 48.2583 117.908H46.4834C46.4967 117.338 46.6607 116.838 46.9756 116.407C47.2905 115.973 47.713 115.635 48.2433 115.393C48.777 115.147 49.3736 115.025 50.0331 115.025C50.7126 115.025 51.3025 115.152 51.803 115.408C52.3068 115.66 52.6962 115.999 52.9713 116.427C53.2497 116.854 53.3873 117.327 53.384 117.844C53.3873 118.414 53.2199 118.894 52.8818 119.285C52.5438 119.673 52.098 119.927 51.5445 120.046V120.126C52.2571 120.228 52.8056 120.494 53.1901 120.921C53.5745 121.349 53.7651 121.881 53.7618 122.517C53.7651 123.09 53.6044 123.601 53.2796 124.048C52.9548 124.496 52.509 124.847 51.9422 125.102C51.3754 125.357 50.7291 125.485 50.0033 125.485ZM57.1226 123.954L57.058 124.501C57.0116 124.918 56.9287 125.343 56.8094 125.773C56.6934 126.208 56.5708 126.607 56.4415 126.972C56.3122 127.336 56.2078 127.623 56.1283 127.832H54.9152C54.9649 127.629 55.0296 127.353 55.1091 127.001C55.1887 126.653 55.2665 126.262 55.3428 125.828C55.419 125.397 55.4704 124.958 55.4969 124.511L55.5317 123.954H57.1226ZM62.2595 125.485C61.5204 125.485 60.8641 125.361 60.2907 125.112C59.7207 124.864 59.2749 124.524 58.9534 124.093C58.6319 123.659 58.4711 123.167 58.4711 122.616C58.4711 122.192 58.564 121.801 58.7496 121.443C58.9385 121.082 59.1937 120.782 59.5152 120.543C59.8367 120.301 60.1979 120.147 60.599 120.081V120.011C60.0753 119.895 59.6511 119.628 59.3263 119.211C59.0048 118.79 58.8457 118.304 58.849 117.754C58.849 117.231 58.9948 116.763 59.2865 116.352C59.5815 115.941 59.9858 115.618 60.4996 115.383C61.0166 115.144 61.6032 115.025 62.2595 115.025C62.9124 115.025 63.4941 115.144 64.0045 115.383C64.5183 115.618 64.9226 115.941 65.2176 116.352C65.5159 116.763 65.665 117.231 65.665 117.754C65.6617 118.304 65.4977 118.79 65.1729 119.211C64.848 119.628 64.4288 119.895 63.915 120.011V120.081C64.3095 120.147 64.6674 120.301 64.9889 120.543C65.3104 120.782 65.5656 121.082 65.7545 121.443C65.9468 121.801 66.0429 122.192 66.0429 122.616C66.0429 123.167 65.8805 123.659 65.5557 124.093C65.2309 124.524 64.7834 124.864 64.2133 125.112C63.6466 125.361 62.9953 125.485 62.2595 125.485ZM62.2595 124.063C62.8296 124.063 63.2853 123.919 63.6267 123.631C63.9714 123.339 64.1454 122.958 64.1487 122.487C64.1454 122.003 63.9648 121.606 63.6068 121.294C63.2522 120.979 62.8031 120.822 62.2595 120.822C61.7093 120.822 61.2552 120.977 60.8973 121.289C60.5426 121.601 60.367 122 60.3703 122.487C60.367 122.958 60.536 123.339 60.8774 123.631C61.2221 123.919 61.6828 124.063 62.2595 124.063ZM62.2595 119.425C62.7235 119.425 63.1063 119.287 63.4079 119.012C63.7129 118.734 63.867 118.372 63.8703 117.928C63.867 117.491 63.7162 117.138 63.4179 116.869C63.1196 116.601 62.7335 116.467 62.2595 116.467C61.7789 116.467 61.3895 116.601 61.0912 116.869C60.7929 117.138 60.6454 117.491 60.6487 117.928C60.6454 118.369 60.7945 118.729 61.0961 119.007C61.4011 119.285 61.7889 119.425 62.2595 119.425ZM71.3314 125.485C70.6155 125.485 69.9791 125.362 69.4223 125.117C68.8688 124.872 68.4297 124.53 68.1048 124.093C67.7834 123.655 67.6143 123.15 67.5977 122.577H69.4671C69.4903 122.991 69.6775 123.322 70.0289 123.571C70.3835 123.816 70.816 123.939 71.3264 123.939C71.87 123.939 72.3174 123.8 72.6688 123.521C73.0201 123.24 73.1941 122.873 73.1908 122.423C73.1941 121.962 73.0135 121.586 72.6489 121.294C72.2876 121.002 71.7855 120.856 71.1425 120.856H70.2426V119.435H71.1425C71.6695 119.435 72.0987 119.299 72.4301 119.027C72.7649 118.755 72.9306 118.397 72.9273 117.953C72.9306 117.526 72.7864 117.181 72.4948 116.919C72.2064 116.654 71.8253 116.521 71.3513 116.521C70.8807 116.521 70.473 116.646 70.1283 116.894C69.7836 117.143 69.603 117.481 69.5864 117.908H67.8115C67.8248 117.338 67.9888 116.838 68.3037 116.407C68.6186 115.973 69.0412 115.635 69.5715 115.393C70.1051 115.147 70.7017 115.025 71.3612 115.025C72.0407 115.025 72.6307 115.152 73.1311 115.408C73.6349 115.66 74.0244 115.999 74.2994 116.427C74.5779 116.854 74.7154 117.327 74.7121 117.844C74.7154 118.414 74.548 118.894 74.21 119.285C73.8719 119.673 73.4261 119.927 72.8726 120.046V120.126C73.5852 120.228 74.1337 120.494 74.5182 120.921C74.9027 121.349 75.0932 121.881 75.0899 122.517C75.0932 123.09 74.9325 123.601 74.6077 124.048C74.2829 124.496 73.8371 124.847 73.2703 125.102C72.7036 125.357 72.0573 125.485 71.3314 125.485ZM76.7964 125.346V124.013L80.3312 120.548C80.835 120.038 81.2145 119.604 81.4697 119.246C81.7249 118.888 81.8525 118.497 81.8525 118.072C81.8525 117.592 81.6918 117.214 81.3703 116.939C81.0488 116.66 80.6461 116.521 80.1622 116.521C79.6551 116.521 79.2491 116.674 78.9442 116.979C78.6425 117.28 78.4917 117.691 78.4917 118.212H76.7368C76.7368 117.565 76.8843 117.003 77.1792 116.526C77.4742 116.049 77.8802 115.679 78.3973 115.418C78.9176 115.156 79.5142 115.025 80.1871 115.025C80.8698 115.025 81.4681 115.152 81.9818 115.408C82.4988 115.663 82.9015 116.012 83.1899 116.457C83.4782 116.901 83.6224 117.408 83.6224 117.978C83.6224 118.359 83.5495 118.734 83.4037 119.102C83.2578 119.469 83.001 119.879 82.6331 120.329C82.2685 120.777 81.7564 121.317 81.0969 121.95L79.3419 123.735V123.805H83.7765V125.346H76.7964Z" fill="#6A35FF"/>
<defs>
<filter id="filter0_d_27_142" x="0.0429688" y="93.924" width="134.232" height="94.1467" filterUnits="userSpaceOnUse" color-interpolation-filters="sRGB">
<feFlood flood-opacity="0" result="BackgroundImageFix"/>
<feColorMatrix in="SourceAlpha" type="matrix" values="0 0 0 0 0 0 0 0 0 0 0 0 0 0 0 0 0 0 127 0" result="hardAlpha"/>
<feOffset dx="10" dy="20"/>
<feGaussianBlur stdDeviation="15"/>
<feColorMatrix type="matrix" values="0 0 0 0 0 0 0 0 0 0 0 0 0 0 0 0 0 0 0.04 0"/>
<feBlend mode="normal" in2="BackgroundImageFix" result="effect1_dropShadow_27_142"/>
<feBlend mode="normal" in="SourceGraphic" in2="effect1_dropShadow_27_142" result="shape"/>
</filter>
</defs>
</svg>
