<svg width="234" height="243" viewBox="0 0 234 243" fill="none" xmlns="http://www.w3.org/2000/svg">
<path d="M60.5924 127.776C103.891 127.776 138.992 92.6756 138.992 49.3767C138.992 30.6622 132.435 13.4793 121.493 0L0 99.1303C14.3787 116.621 36.1828 127.776 60.5924 127.776Z" fill="#C2A6F1"/>
<path d="M60.5924 127.776C103.891 127.776 138.992 92.6756 138.992 49.3767C138.992 30.6622 132.435 13.4793 121.493 0L0 99.1303C14.3787 116.621 36.1828 127.776 60.5924 127.776Z" fill="url(#paint0_radial_37_7)"/>
<path d="M60.5924 127.776C103.891 127.776 138.992 92.6756 138.992 49.3767C138.992 30.6622 132.435 13.4793 121.493 0L0 99.1303C14.3787 116.621 36.1828 127.776 60.5924 127.776Z" fill="url(#paint1_linear_37_7)"/>
<path d="M60.5924 127.776C103.891 127.776 138.992 92.6756 138.992 49.3767C138.992 30.6622 132.435 13.4793 121.493 0L0 99.1303C14.3787 116.621 36.1828 127.776 60.5924 127.776Z" fill="url(#paint2_linear_37_7)"/>
<path d="M60.5924 127.776C103.891 127.776 138.992 92.6756 138.992 49.3767C138.992 30.6622 132.435 13.4793 121.493 0L0 99.1303C14.3787 116.621 36.1828 127.776 60.5924 127.776Z" fill="url(#paint3_linear_37_7)"/>
<path d="M60.5924 127.776C103.891 127.776 138.992 92.6756 138.992 49.3767C138.992 30.6622 132.435 13.4793 121.493 0L0 99.1303C14.3787 116.621 36.1828 127.776 60.5924 127.776Z" fill="url(#paint4_radial_37_7)"/>
<path d="M60.5924 127.776C103.891 127.776 138.992 92.6756 138.992 49.3767C138.992 30.6622 132.435 13.4793 121.493 0L0 99.1303C14.3787 116.621 36.1828 127.776 60.5924 127.776Z" fill="url(#paint5_radial_37_7)"/>
<path d="M60.5924 127.776C103.891 127.776 138.992 92.6756 138.992 49.3767C138.992 30.6622 132.435 13.4793 121.493 0L0 99.1303C14.3787 116.621 36.1828 127.776 60.5924 127.776Z" fill="url(#paint6_radial_37_7)"/>
<path d="M60.5924 127.776C103.891 127.776 138.992 92.6756 138.992 49.3767C138.992 30.6622 132.435 13.4793 121.493 0L0 99.1303C14.3787 116.621 36.1828 127.776 60.5924 127.776Z" fill="url(#paint7_linear_37_7)"/>
<g filter="url(#filter0_b_37_7)">
<rect x="43.2529" y="51.64" width="190.722" height="190.722" rx="22.1252" fill="white" fill-opacity="0.3"/>
</g>
<defs>
<filter id="filter0_b_37_7" x="15.171" y="23.558" width="246.887" height="246.886" filterUnits="userSpaceOnUse" color-interpolation-filters="sRGB">
<feFlood flood-opacity="0" result="BackgroundImageFix"/>
<feGaussianBlur in="BackgroundImage" stdDeviation="14.041"/>
<feComposite in2="SourceAlpha" operator="in" result="effect1_backgroundBlur_37_7"/>
<feBlend mode="normal" in="SourceGraphic" in2="effect1_backgroundBlur_37_7" result="shape"/>
</filter>
<radialGradient id="paint0_radial_37_7" cx="0" cy="0" r="1" gradientUnits="userSpaceOnUse" gradientTransform="translate(126.135 51.3023) rotate(107.004) scale(130.108 63.8072)">
<stop stop-color="#F3476F"/>
<stop offset="0.344597" stop-color="#EA8ED0"/>
<stop offset="0.695017" stop-color="#F0BDD0"/>
<stop offset="1" stop-color="#FF8126" stop-opacity="0"/>
</radialGradient>
<linearGradient id="paint1_linear_37_7" x1="78.9649" y1="-8.6303" x2="109.822" y2="18.1002" gradientUnits="userSpaceOnUse">
<stop stop-color="#C0A9F0" stop-opacity="0"/>
<stop offset="0.456382" stop-color="#C0A9F0"/>
<stop offset="1" stop-color="#C0A9F0" stop-opacity="0"/>
</linearGradient>
<linearGradient id="paint2_linear_37_7" x1="148.895" y1="-29.9663" x2="114.303" y2="20.9898" gradientUnits="userSpaceOnUse">
<stop stop-color="#C0A9F0" stop-opacity="0"/>
<stop offset="0.461891" stop-color="#C0A9F0"/>
<stop offset="1" stop-color="#C0A9F0" stop-opacity="0"/>
</linearGradient>
<linearGradient id="paint3_linear_37_7" x1="35.3561" y1="20.1374" x2="70.2801" y2="57.5894" gradientUnits="userSpaceOnUse">
<stop stop-color="#643DD5" stop-opacity="0.6"/>
<stop offset="1" stop-color="#77C0EB" stop-opacity="0.01"/>
</linearGradient>
<radialGradient id="paint4_radial_37_7" cx="0" cy="0" r="1" gradientUnits="userSpaceOnUse" gradientTransform="translate(63.3282 57.0558) rotate(-119.373) scale(40.0264 82.8296)">
<stop stop-color="#CBADEB"/>
<stop offset="1" stop-color="#C2A6F1" stop-opacity="0"/>
</radialGradient>
<radialGradient id="paint5_radial_37_7" cx="0" cy="0" r="1" gradientUnits="userSpaceOnUse" gradientTransform="translate(49.8634 127.776) rotate(-127.397) scale(57.7864 78.9276)">
<stop stop-color="#DC8DDC"/>
<stop offset="1" stop-color="#DC8DDC" stop-opacity="0"/>
</radialGradient>
<radialGradient id="paint6_radial_37_7" cx="0" cy="0" r="1" gradientUnits="userSpaceOnUse" gradientTransform="translate(61.504 111.115) rotate(-138.881) scale(50.853 95.6199)">
<stop stop-color="#DC8DDC"/>
<stop offset="1" stop-color="#DC8DDC" stop-opacity="0"/>
</radialGradient>
<linearGradient id="paint7_linear_37_7" x1="0" y1="0" x2="28.0292" y2="20.0669" gradientUnits="userSpaceOnUse">
<stop stop-color="#D538CF"/>
<stop offset="1" stop-color="#EBF3D0" stop-opacity="0"/>
</linearGradient>
</defs>
</svg>
