<svg width="219" height="151" viewBox="0 0 219 151" fill="none" xmlns="http://www.w3.org/2000/svg">
<path d="M214.545 23.7406C213.299 19.1865 210.863 15.0333 207.48 11.6944C204.098 8.35541 199.886 5.94719 195.265 4.7094C178.129 0.0755149 109.576 8.18635e-05 109.576 8.18635e-05C109.576 8.18635e-05 41.0335 -0.0753556 23.887 4.35377C19.2685 5.64853 15.0656 8.0908 11.6816 11.4461C8.29764 14.8015 5.84631 18.9572 4.56294 23.5143C0.0437871 40.3903 1.6032e-05 75.3922 1.6032e-05 75.3922C1.6032e-05 75.3922 -0.0437528 110.567 4.44257 127.27C6.95929 136.506 14.3453 143.801 23.7338 146.291C41.0444 150.925 109.412 151 109.412 151C109.412 151 177.965 151.075 195.1 146.657C199.724 145.421 203.939 143.019 207.33 139.687C210.721 136.354 213.17 132.208 214.435 127.658C218.966 110.793 218.998 75.8018 218.998 75.8018C218.998 75.8018 219.217 40.6166 214.545 23.7406V23.7406ZM87.6475 107.819L87.7022 43.1598L144.679 75.5431L87.6475 107.819V107.819Z" fill="black"/>
</svg>
