<svg width="62" height="62" viewBox="0 0 62 62" fill="none" xmlns="http://www.w3.org/2000/svg">
<path d="M62 31C62 48.1208 48.1208 62 31 62C13.8792 62 0 48.1208 0 31C0 13.8792 13.8792 0 31 0C48.1208 0 62 13.8792 62 31Z" fill="url(#paint0_linear_41_8)"/>
<path fill-rule="evenodd" clip-rule="evenodd" d="M31.0006 11.89C20.4467 11.89 11.891 20.4457 11.891 30.9996C11.891 41.5536 20.4467 50.1092 31.0006 50.1092C41.5545 50.1092 50.1102 41.5536 50.1102 30.9996C50.1102 20.4457 41.5545 11.89 31.0006 11.89ZM10.1924 30.9996C10.1924 19.5076 19.5085 10.1914 31.0006 10.1914C42.4927 10.1914 51.8088 19.5076 51.8088 30.9996C51.8088 42.4917 42.4927 51.8078 31.0006 51.8078C19.5085 51.8078 10.1924 42.4917 10.1924 30.9996Z" fill="white"/>
<path d="M27.0796 42.2801H24V20H37.544V22.8596H27.0796V30.0245H36.5699V32.9155H27.0796V42.2801Z" fill="white"/>
<defs>
<linearGradient id="paint0_linear_41_8" x1="45.0469" y1="2.42187" x2="13.0781" y2="59.0937" gradientUnits="userSpaceOnUse">
<stop stop-color="#9E2692"/>
<stop offset="1" stop-color="#FAA958"/>
</linearGradient>
</defs>
</svg>
