<svg width="168" height="108" viewBox="0 0 168 108" fill="none" xmlns="http://www.w3.org/2000/svg">
<path d="M37.9321 107.947C59.3817 107.947 76.318 90.5556 76.318 69.106C76.3181 47.6564 58.7016 30.2655 37.252 30.2655C37.0374 30.2655 36.7138 30.2946 36.4992 30.2982C44.9801 23.5447 55.6322 19.4752 67.2916 19.4752C72.6558 19.4752 76.9727 15.1256 76.9727 9.76505C76.9727 4.40447 73.5214 0.0549237 68.1572 0.0549232C30.0839 0.0585515 0.00068574 31.0328 0.000682412 69.106C0.000682411 69.1133 0.00068241 69.1206 0.000682409 69.1315C0.000680535 90.5702 16.4897 107.947 37.9321 107.947Z" fill="#FEFAFF"/>
<path d="M128.905 107.947C150.354 107.947 167.32 90.5556 167.32 69.106C167.32 47.6564 149.718 30.2655 128.265 30.2655C128.05 30.2655 127.734 30.2946 127.519 30.2982C136 23.5447 146.656 19.4752 158.315 19.4752C163.68 19.4752 168 15.1256 168 9.76507C168 4.40449 164.494 0.0549313 159.13 0.0549309C121.057 0.0585668 90.9189 31.0328 90.9189 69.106C90.9189 69.1133 90.9189 69.1206 90.9189 69.1315C90.9189 90.5702 107.463 107.947 128.905 107.947Z" fill="#FEFAFF"/>
</svg>
