<svg width="184" height="183" viewBox="0 0 184 183" fill="none" xmlns="http://www.w3.org/2000/svg">
<path d="M91.9286 44.3612C79.4854 44.3612 67.552 49.3042 58.7533 58.1028C49.9547 66.9014 45.0117 78.8349 45.0117 91.278C45.0117 103.721 49.9547 115.655 58.7533 124.453C67.552 133.252 79.4854 138.195 91.9286 138.195C104.372 138.195 116.305 133.252 125.104 124.453C133.902 115.655 138.845 103.721 138.845 91.278C138.845 78.8349 133.902 66.9014 125.104 58.1028C116.305 49.3042 104.372 44.3612 91.9286 44.3612V44.3612ZM91.9286 121.748C83.8448 121.748 76.0922 118.536 70.3761 112.82C64.6601 107.104 61.4488 99.3516 61.4488 91.2679C61.4488 83.1842 64.6601 75.4315 70.3761 69.7155C76.0922 63.9994 83.8448 60.7882 91.9286 60.7882C100.012 60.7882 107.765 63.9994 113.481 69.7155C119.197 75.4315 122.408 83.1842 122.408 91.2679C122.408 99.3516 119.197 107.104 113.481 112.82C107.765 118.536 100.012 121.748 91.9286 121.748V121.748Z" fill="black"/>
<path d="M140.705 53.5736C146.746 53.5736 151.643 48.6766 151.643 42.6358C151.643 36.595 146.746 31.698 140.705 31.698C134.665 31.698 129.768 36.595 129.768 42.6358C129.768 48.6766 134.665 53.5736 140.705 53.5736Z" fill="black"/>
<path d="M178.518 31.5146C176.169 25.4489 172.579 19.9405 167.979 15.3419C163.379 10.7433 157.869 7.15594 151.802 4.80938C144.703 2.14451 137.203 0.703561 129.622 0.547903C119.851 0.121755 116.757 0 91.9793 0C67.2018 0 64.026 -1.02055e-06 54.3362 0.547903C46.7608 0.695602 39.2664 2.13684 32.1765 4.80938C26.1084 7.15321 20.5971 10.7396 15.9965 15.3386C11.3958 19.9375 7.80726 25.4473 5.46113 31.5146C2.79572 38.6132 1.35808 46.1136 1.2098 53.6946C0.773504 63.4554 0.641602 66.5501 0.641602 91.3377C0.641602 116.115 0.641601 119.271 1.2098 128.981C1.36199 136.57 2.79263 144.058 5.46113 151.171C7.81385 157.236 11.4059 162.744 16.0076 167.342C20.6094 171.94 26.1198 175.528 32.1867 177.876C39.2631 180.648 46.7606 182.192 54.3565 182.442C64.1275 182.868 67.2221 183 91.9996 183C116.777 183 119.953 183 129.643 182.442C137.223 182.288 144.722 180.85 151.823 178.191C157.888 175.839 163.396 172.248 167.996 167.648C172.595 163.048 176.186 157.54 178.538 151.475C181.206 144.373 182.637 136.885 182.789 129.295C183.226 119.534 183.358 116.44 183.358 91.6522C183.358 66.8646 183.358 63.7192 182.789 54.0092C182.671 46.321 181.226 38.7109 178.518 31.5146V31.5146ZM166.159 128.23C166.094 134.077 165.027 139.87 163.004 145.357C161.48 149.303 159.147 152.886 156.156 155.875C153.164 158.865 149.58 161.196 145.633 162.717C140.207 164.731 134.476 165.798 128.689 165.873C119.05 166.319 116.331 166.431 91.614 166.431C66.8771 166.431 64.3507 166.431 54.529 165.873C48.7448 165.802 43.0162 164.735 37.5947 162.717C33.6344 161.205 30.0357 158.879 27.0312 155.888C24.0267 152.898 21.6835 149.31 20.1531 145.357C18.1588 139.929 17.092 134.204 16.9976 128.423C16.5613 118.784 16.4598 116.064 16.4598 91.3478C16.4598 66.6211 16.4598 64.0946 16.9976 54.2628C17.0631 48.4187 18.1305 42.6292 20.1531 37.1459C23.2477 29.1404 29.5892 22.8395 37.5947 19.7753C43.0188 17.7677 48.7458 16.7006 54.529 16.6198C64.1782 16.1835 66.8873 16.0617 91.614 16.0617C116.341 16.0617 118.877 16.0617 128.689 16.6198C134.476 16.6894 140.209 17.7569 145.633 19.7753C149.58 21.3 153.163 23.633 156.155 26.6244C159.146 29.6158 161.479 33.1997 163.004 37.1459C164.998 42.5737 166.065 48.2984 166.159 54.0802C166.596 63.7294 166.707 66.4385 166.707 91.1652C166.707 115.882 166.707 118.54 166.271 128.24H166.159V128.23Z" fill="black"/>
</svg>
