<svg width="138" height="26" viewBox="0 0 138 26" fill="none" xmlns="http://www.w3.org/2000/svg">
<path d="M120.642 0C120.146 0 119.743 0.402412 119.743 0.898618V7.20112H136.391L128.81 0.000581339L120.642 0Z" fill="#B3B7BC"/>
<path d="M137.002 9.10703C137.002 8.60966 136.602 8.20898 136.103 8.20898H129.802V24.8578L136.999 17.2728L137.002 9.10703Z" fill="#B3B7BC"/>
<path d="M127.891 25.4615C128.387 25.4615 128.789 25.0585 128.789 24.5612V18.261H112.141L119.723 25.4604L127.891 25.4615Z" fill="#B3B7BC"/>
<path d="M111.532 16.3544C111.532 16.8512 111.935 17.2559 112.433 17.2559H118.732V0.605957L111.533 8.18863L111.532 16.3544Z" fill="#B3B7BC"/>
<path d="M35.2223 3.03911V10.7277H24.5107V3.03911L20.6094 3.03564V22.4219H24.5107V14.0935H35.2223V22.4219H39.1301V3.03911H35.2223Z" fill="#B3B7BC"/>
<path d="M87.125 3.03906V22.4173H104.241L102.073 19.0058H91.0374V14.0935H101.724V10.8076H91.0374V6.37067H102.055L104.178 3.03906H87.125Z" fill="#B3B7BC"/>
<path d="M6.10796 3.03442C2.04971 3.03442 0 5.50157 0 9.09142V16.3279C0 20.4822 2.64143 22.4219 6.08769 22.4219L18.3279 22.4207L16.0588 18.8772H6.84387C4.88624 18.8772 4.03337 18.1697 4.03337 15.9787V9.41335C4.03337 7.29534 4.75134 6.4691 6.89598 6.4691H16.1549L18.3337 3.03442H6.10796Z" fill="#B3B7BC"/>
<path d="M70.0017 3.03002C67.6579 3.03002 65.2556 4.43875 65.2556 8.06218V8.99321C65.2556 12.7707 67.567 14.2118 69.8795 14.2217H77.9966C78.8397 14.2217 79.5246 14.3618 79.5246 15.7867L79.5235 17.4328C79.502 18.713 78.8634 19.006 77.9677 19.006H67.2891L65.1016 22.4175H78.219C81.3821 22.4175 83.5296 20.8438 83.5296 17.2087V15.873C83.5296 12.3584 81.5344 10.6978 78.4407 10.6978H70.6901C69.8309 10.6978 69.2322 10.4633 69.2322 9.19065V7.85025C69.2322 6.76635 69.6427 6.37089 70.6438 6.37089L80.8135 6.36684L82.939 3.02539L70.0017 3.03002Z" fill="#B3B7BC"/>
<path d="M50.4652 3.03955L41.2734 22.4212H45.6177L47.408 18.4185H57.3965L59.181 22.4212H63.5444L54.3312 3.03955H50.4652ZM52.3927 7.06365L55.9246 15.1194H48.8833L52.3927 7.06365Z" fill="#B3B7BC"/>
</svg>
