<svg width="122" height="25" viewBox="0 0 122 25" fill="none" xmlns="http://www.w3.org/2000/svg">
<path fill-rule="evenodd" clip-rule="evenodd" d="M18.7026 5.66475C18.7026 8.79361 16.1646 11.3301 13.0336 11.3301C9.90254 11.3301 7.36449 8.79361 7.36449 5.66475C7.36449 2.53653 9.90254 0 13.0336 0C16.1646 0 18.7026 2.53653 18.7026 5.66475ZM5.66913 12.7465C2.53818 12.7465 0 15.2823 0 18.4111C0 21.5397 2.53818 24.076 5.66913 24.076C8.80022 24.076 11.3385 21.5397 11.3385 18.4111C11.3385 15.2823 8.80022 12.7465 5.66913 12.7465ZM20.398 12.746C17.267 12.746 14.7289 15.2823 14.7289 18.4111C14.7289 21.5397 17.267 24.076 20.398 24.076C23.5289 24.076 26.0671 21.5397 26.0671 18.4111C26.0671 15.2823 23.5289 12.746 20.398 12.746Z" fill="#B3B7BC"/>
<path fill-rule="evenodd" clip-rule="evenodd" d="M46.0137 18.3459C46.0876 19.1864 46.7603 20.2561 47.9258 20.2561H48.6077C48.872 20.2561 49.0887 20.0395 49.0887 19.7752V4.78926H49.0857C49.0719 4.53679 48.8632 4.33459 48.6077 4.33459H46.4947C46.2392 4.33459 46.0305 4.53679 46.0163 4.78926H46.0137V6.00695C44.7191 4.41235 42.678 3.75049 40.6311 3.75049C35.9786 3.75049 32.207 7.52213 32.207 12.175C32.207 16.8281 35.9786 20.5999 40.6311 20.5999V20.6002C42.678 20.6002 44.9086 19.8061 46.0135 18.344L46.0137 18.3459ZM40.6394 17.6513C37.6804 17.6513 35.2816 15.1997 35.2816 12.175C35.2816 9.15076 37.6804 6.699 40.6394 6.699C43.5983 6.699 45.9968 9.15076 45.9968 12.175C45.9968 15.1997 43.5983 17.6513 40.6394 17.6513Z" fill="#B3B7BC"/>
<path fill-rule="evenodd" clip-rule="evenodd" d="M80.4395 18.3455C80.5134 19.1859 81.1861 20.2556 82.3516 20.2556H83.0335C83.2978 20.2556 83.5142 20.0391 83.5142 19.7747V4.78877H83.5115C83.4977 4.5363 83.2887 4.3341 83.0335 4.3341H80.9205C80.665 4.3341 80.4562 4.5363 80.4419 4.78877H80.4395V6.00646C79.1447 4.41186 77.1036 3.75 75.0568 3.75C70.4043 3.75 66.6328 7.52164 66.6328 12.1745C66.6328 16.8276 70.4043 20.5994 75.0568 20.5994V20.5998C77.1036 20.5998 79.3344 19.8056 80.4392 18.3435L80.4395 18.3455ZM75.0649 17.6509C72.1062 17.6509 69.7073 15.1992 69.7073 12.1745C69.7073 9.15027 72.1062 6.69851 75.0649 6.69851C78.024 6.69851 80.4225 9.15027 80.4225 12.1745C80.4225 15.1992 78.024 17.6509 75.0649 17.6509Z" fill="#B3B7BC"/>
<path fill-rule="evenodd" clip-rule="evenodd" d="M118.924 18.3455C118.998 19.1859 119.67 20.2556 120.836 20.2556H121.518C121.782 20.2556 121.999 20.0391 121.999 19.7747V4.78877H121.996C121.982 4.5363 121.773 4.3341 121.518 4.3341H119.405C119.149 4.3341 118.941 4.5363 118.927 4.78877H118.924V6.00646C117.629 4.41186 115.588 3.75 113.541 3.75C108.889 3.75 105.117 7.52164 105.117 12.1745C105.117 16.8276 108.889 20.5994 113.541 20.5994V20.5998C115.588 20.5998 117.819 19.8056 118.924 18.3435L118.924 18.3455ZM113.55 17.6509C110.591 17.6509 108.192 15.1992 108.192 12.1745C108.192 9.15027 110.591 6.69851 113.55 6.69851C116.508 6.69851 118.907 9.15027 118.907 12.1745C118.907 15.1992 116.508 17.6509 113.55 17.6509Z" fill="#B3B7BC"/>
<path fill-rule="evenodd" clip-rule="evenodd" d="M102.444 18.8618L102.443 11.1072H102.443C102.443 6.736 99.6856 3.78711 95.2882 3.78711C93.1891 3.78711 91.4683 5.00097 90.8606 6.0437C90.7292 5.22837 90.2963 4.37134 88.954 4.37134H88.2698C88.0052 4.37134 87.7891 4.58799 87.7891 4.85235V18.384V18.386V19.8396H87.7918C87.8056 20.0916 88.0145 20.2941 88.2701 20.2941H90.383C90.4154 20.2941 90.4471 20.2903 90.4778 20.2843C90.4918 20.2816 90.5048 20.2761 90.5184 20.2722C90.5341 20.2674 90.5504 20.2637 90.5654 20.2575C90.5842 20.2497 90.6012 20.2392 90.6187 20.2295C90.6273 20.2243 90.6363 20.2206 90.6446 20.2151C90.6657 20.2015 90.685 20.1851 90.7037 20.1684C90.7067 20.1653 90.7104 20.1633 90.7135 20.1605C90.7345 20.1401 90.7537 20.1177 90.7707 20.0945L90.7708 20.0941C90.8237 20.0214 90.8559 19.9339 90.8611 19.8396H90.8638V10.987C90.8638 8.63935 92.7672 6.736 95.115 6.736C97.4626 6.736 99.366 8.63935 99.366 10.987L99.3679 18.3865L99.3684 18.384C99.3684 18.3905 99.3694 18.3973 99.3694 18.4043V19.8396H99.3723C99.3862 20.0916 99.5949 20.2941 99.8504 20.2941H101.964C101.996 20.2941 102.028 20.2903 102.058 20.2843C102.071 20.282 102.082 20.277 102.095 20.2735C102.112 20.2685 102.13 20.2642 102.146 20.2575C102.163 20.2504 102.179 20.2404 102.196 20.2312C102.206 20.2255 102.216 20.2215 102.226 20.2151C102.245 20.2023 102.263 20.1868 102.28 20.1714C102.285 20.1674 102.29 20.1643 102.294 20.1601C102.314 20.1408 102.332 20.1199 102.348 20.098C102.35 20.0964 102.351 20.0951 102.352 20.0934C102.404 20.0214 102.436 19.9346 102.441 19.8408C102.441 19.8402 102.442 19.8396 102.442 19.8396H102.445V18.8621L102.444 18.8618Z" fill="#B3B7BC"/>
<path fill-rule="evenodd" clip-rule="evenodd" d="M54.1356 16.1994C55.5462 17.1766 57.0859 17.6512 58.5655 17.6512C59.9751 17.6512 61.4324 16.9204 61.4324 15.6485C61.4324 13.9503 58.2569 13.6861 56.2619 13.008C54.2664 12.3299 52.5477 10.9281 52.5477 8.65813C52.5477 5.18461 55.6426 3.75 58.5313 3.75C60.3615 3.75 62.2499 4.35354 63.4742 5.21812C63.8958 5.5376 63.639 5.9044 63.639 5.9044L62.4704 7.57357C62.339 7.76158 62.1093 7.92401 61.7797 7.72052C61.45 7.51717 60.2936 6.69864 58.5313 6.69864C56.7688 6.69864 55.7072 7.51257 55.7072 8.52141C55.7072 9.73117 57.087 10.1117 58.7031 10.524C61.5195 11.2832 64.5918 12.1957 64.5918 15.6485C64.5918 18.7089 61.7293 20.6003 58.5655 20.6003C56.168 20.6003 54.1268 19.9168 52.4148 18.6605C52.0581 18.3035 52.3073 17.9721 52.3073 17.9721L53.4702 16.3114C53.7068 16.0009 54.0051 16.1092 54.1356 16.1994Z" fill="#B3B7BC"/>
</svg>
