<svg width="379" height="392" viewBox="0 0 379 392" fill="none" xmlns="http://www.w3.org/2000/svg">
<g filter="url(#filter0_d)">
<rect x="63" y="25" width="268.72" height="296.928" rx="8" fill="white"/>
</g>
<path d="M121.178 68.4335V58.9789H126.884V59.9946H122.323V63.1892H126.589V64.2048H122.323V67.4178H126.958V68.4335H121.178ZM130.887 68.5997C130.437 68.5997 130.029 68.515 129.663 68.3458C129.297 68.1734 129.006 67.9257 128.791 67.6025C128.575 67.2763 128.468 66.8823 128.468 66.4207C128.468 66.0144 128.548 65.6851 128.708 65.4328C128.868 65.1773 129.081 64.9773 129.349 64.8326C129.617 64.688 129.912 64.5803 130.236 64.5095C130.562 64.4356 130.89 64.3771 131.219 64.334C131.65 64.2786 131.999 64.2371 132.267 64.2094C132.538 64.1786 132.735 64.1278 132.858 64.0571C132.984 63.9863 133.047 63.8632 133.047 63.6877V63.6508C133.047 63.1953 132.922 62.8414 132.673 62.589C132.427 62.3366 132.053 62.2105 131.551 62.2105C131.031 62.2105 130.623 62.3243 130.328 62.5521C130.032 62.7798 129.825 63.023 129.705 63.2815L128.671 62.9122C128.855 62.4813 129.102 62.1458 129.409 61.9058C129.72 61.6626 130.059 61.4934 130.425 61.398C130.794 61.2995 131.157 61.2502 131.514 61.2502C131.742 61.2502 132.004 61.2779 132.299 61.3333C132.598 61.3856 132.885 61.4949 133.162 61.6611C133.443 61.8273 133.675 62.0781 133.86 62.4136C134.044 62.749 134.137 63.1984 134.137 63.7616V68.4335H133.047V67.4732H132.992C132.918 67.6271 132.795 67.7918 132.622 67.9672C132.45 68.1426 132.221 68.2919 131.934 68.415C131.648 68.5381 131.299 68.5997 130.887 68.5997ZM131.053 67.621C131.484 67.621 131.847 67.5363 132.142 67.3671C132.441 67.1978 132.665 66.9793 132.816 66.7115C132.97 66.4438 133.047 66.1622 133.047 65.8667V64.8696C133.001 64.9249 132.899 64.9757 132.742 65.0219C132.588 65.065 132.41 65.1035 132.207 65.1373C132.007 65.1681 131.811 65.1958 131.621 65.2204C131.433 65.2419 131.28 65.2604 131.164 65.2758C130.88 65.3127 130.616 65.3727 130.369 65.4558C130.126 65.5359 129.929 65.6574 129.779 65.8205C129.631 65.9806 129.557 66.1991 129.557 66.4761C129.557 66.8546 129.697 67.1409 129.977 67.3348C130.26 67.5256 130.619 67.621 131.053 67.621ZM136.125 68.4335V61.3426H137.178V62.4136H137.252C137.381 62.0627 137.615 61.7781 137.953 61.5595C138.292 61.341 138.673 61.2318 139.098 61.2318C139.178 61.2318 139.278 61.2333 139.398 61.2364C139.518 61.2395 139.609 61.2441 139.671 61.2502V62.3582C139.634 62.349 139.549 62.3351 139.417 62.3166C139.287 62.2951 139.15 62.2843 139.006 62.2843C138.489 62.2843 138.061 62.4413 137.722 62.7552C137.384 63.0691 137.215 63.4661 137.215 63.9463V68.4335H136.125ZM142.051 64.1678V68.4335H140.962V61.3426H142.015V62.4505H142.107C142.273 62.0904 142.525 61.8011 142.864 61.5826C143.203 61.361 143.64 61.2502 144.175 61.2502C144.892 61.2502 145.471 61.4703 145.911 61.9104C146.354 62.3505 146.576 63.023 146.576 63.9278V68.4335H145.486V64.0017C145.486 63.4446 145.342 63.0106 145.052 62.6998C144.763 62.3859 144.366 62.2289 143.861 62.2289C143.341 62.2289 142.909 62.3982 142.564 62.7367C142.222 63.0722 142.051 63.5492 142.051 64.1678ZM148.566 68.4335V61.3426H149.656V68.4335H148.566ZM149.12 60.1607C148.908 60.1607 148.725 60.0884 148.571 59.9438C148.42 59.7991 148.345 59.6252 148.345 59.4221C148.345 59.219 148.42 59.0451 148.571 58.9004C148.725 58.7558 148.908 58.6835 149.12 58.6835C149.333 58.6835 149.514 58.7558 149.665 58.9004C149.819 59.0451 149.896 59.219 149.896 59.4221C149.896 59.6252 149.819 59.7991 149.665 59.9438C149.514 60.0884 149.333 60.1607 149.12 60.1607ZM152.741 64.1678V68.4335H151.651V61.3426H152.704V62.4505H152.796C152.963 62.0904 153.215 61.8011 153.553 61.5826C153.892 61.361 154.329 61.2502 154.865 61.2502C155.582 61.2502 156.16 61.4703 156.6 61.9104C157.044 62.3505 157.265 63.023 157.265 63.9278V68.4335H156.176V64.0017C156.176 63.4446 156.031 63.0106 155.742 62.6998C155.452 62.3859 155.055 62.2289 154.551 62.2289C154.03 62.2289 153.598 62.3982 153.253 62.7367C152.912 63.0722 152.741 63.5492 152.741 64.1678ZM162.118 71.2403C161.327 71.2403 160.701 71.0956 160.239 70.8063C159.781 70.5201 159.441 70.1908 159.219 69.8184L160.087 69.209C160.185 69.3383 160.31 69.486 160.461 69.6522C160.612 69.8215 160.818 69.9677 161.079 70.0908C161.344 70.217 161.69 70.2801 162.118 70.2801C162.691 70.2801 163.163 70.1416 163.535 69.8646C163.908 69.5876 164.094 69.1536 164.094 68.5627V67.1224H164.002C163.922 67.2517 163.808 67.4117 163.66 67.6025C163.515 67.7902 163.306 67.958 163.032 68.1057C162.761 68.2504 162.395 68.3227 161.934 68.3227C161.361 68.3227 160.847 68.1873 160.392 67.9164C159.939 67.6456 159.581 67.2517 159.316 66.7346C159.054 66.2176 158.924 65.5897 158.924 64.8511C158.924 64.1248 159.051 63.4923 159.307 62.9537C159.562 62.412 159.918 61.9935 160.373 61.698C160.829 61.3995 161.355 61.2502 161.952 61.2502C162.414 61.2502 162.78 61.3272 163.051 61.4811C163.325 61.6319 163.534 61.8042 163.679 61.9981C163.826 62.1889 163.94 62.3459 164.02 62.469H164.131V61.3426H165.184V68.6366C165.184 69.246 165.045 69.7415 164.768 70.1231C164.494 70.5078 164.125 70.7894 163.66 70.9679C163.198 71.1495 162.684 71.2403 162.118 71.2403ZM162.081 67.344C162.737 67.344 163.238 67.1224 163.586 66.6792C163.937 66.233 164.112 65.6174 164.112 64.8326C164.112 64.0663 163.94 63.4415 163.595 62.9583C163.251 62.4721 162.746 62.2289 162.081 62.2289C161.62 62.2289 161.235 62.3459 160.927 62.5798C160.622 62.8137 160.393 63.1276 160.239 63.5215C160.088 63.9155 160.013 64.3525 160.013 64.8326C160.013 65.5713 160.187 66.1745 160.535 66.6423C160.882 67.1101 161.398 67.344 162.081 67.344ZM170.982 68.4335V58.9789H174.287C174.946 58.9789 175.489 59.0928 175.917 59.3205C176.345 59.5452 176.663 59.8484 176.872 60.23C177.082 60.6085 177.186 61.0286 177.186 61.4903C177.186 61.8965 177.114 62.232 176.969 62.4967C176.828 62.7614 176.64 62.9706 176.406 63.1245C176.175 63.2784 175.925 63.3923 175.654 63.4661V63.5585C175.943 63.5769 176.234 63.6785 176.526 63.8632C176.819 64.0478 177.063 64.3125 177.26 64.6572C177.457 65.0019 177.556 65.4235 177.556 65.9221C177.556 66.3961 177.448 66.8223 177.233 67.2009C177.017 67.5794 176.677 67.8795 176.212 68.1011C175.748 68.3227 175.143 68.4335 174.398 68.4335H170.982ZM172.127 67.4178H174.398C175.146 67.4178 175.677 67.2732 175.991 66.9839C176.308 66.6915 176.466 66.3376 176.466 65.9221C176.466 65.602 176.385 65.3066 176.222 65.0357C176.058 64.7618 175.826 64.5433 175.524 64.3802C175.223 64.214 174.866 64.1309 174.453 64.1309H172.127V67.4178ZM172.127 63.1338H174.25C174.767 63.1338 175.204 62.9845 175.561 62.686C175.918 62.3874 176.097 61.9889 176.097 61.4903C176.097 61.0748 175.952 60.7224 175.663 60.4331C175.374 60.1407 174.915 59.9946 174.287 59.9946H172.127V63.1338ZM179.954 71.1849C179.769 71.1849 179.605 71.1695 179.46 71.1387C179.315 71.111 179.215 71.0833 179.16 71.0556L179.437 70.0954C179.834 70.197 180.165 70.1939 180.429 70.0862C180.697 69.9815 180.926 69.6645 181.117 69.1352L181.357 68.4704L178.735 61.3426H179.917L181.874 66.9931H181.948L183.906 61.3426H185.087L182.041 69.5784C181.64 70.6494 180.945 71.1849 179.954 71.1849ZM190.329 68.4335V58.9789H193.524C194.266 58.9789 194.872 59.1128 195.343 59.3806C195.817 59.6452 196.168 60.0038 196.396 60.4562C196.623 60.9086 196.737 61.4133 196.737 61.9704C196.737 62.5275 196.623 63.0337 196.396 63.4892C196.171 63.9447 195.823 64.3079 195.352 64.5787C194.881 64.8465 194.278 64.9803 193.543 64.9803H191.474V68.4335H190.329ZM191.474 63.9647H193.506C194.266 63.9647 194.806 63.7739 195.126 63.3923C195.449 63.0106 195.611 62.5367 195.611 61.9704C195.611 61.401 195.449 60.9302 195.126 60.5578C194.803 60.1823 194.257 59.9946 193.487 59.9946H191.474V63.9647ZM199.523 58.9789V68.4335H198.434V58.9789H199.523ZM203.605 68.5997C203.156 68.5997 202.748 68.515 202.382 68.3458C202.016 68.1734 201.725 67.9257 201.509 67.6025C201.294 67.2763 201.186 66.8823 201.186 66.4207C201.186 66.0144 201.266 65.6851 201.426 65.4328C201.586 65.1773 201.8 64.9773 202.068 64.8326C202.336 64.688 202.631 64.5803 202.954 64.5095C203.281 64.4356 203.608 64.3771 203.938 64.334C204.369 64.2786 204.718 64.2371 204.986 64.2094C205.256 64.1786 205.453 64.1278 205.577 64.0571C205.703 63.9863 205.766 63.8632 205.766 63.6877V63.6508C205.766 63.1953 205.641 62.8414 205.392 62.589C205.146 62.3366 204.772 62.2105 204.27 62.2105C203.75 62.2105 203.342 62.3243 203.047 62.5521C202.751 62.7798 202.544 63.023 202.423 63.2815L201.389 62.9122C201.574 62.4813 201.82 62.1458 202.128 61.9058C202.439 61.6626 202.777 61.4934 203.144 61.398C203.513 61.2995 203.876 61.2502 204.233 61.2502C204.461 61.2502 204.722 61.2779 205.018 61.3333C205.316 61.3856 205.604 61.4949 205.881 61.6611C206.161 61.8273 206.394 62.0781 206.578 62.4136C206.763 62.749 206.855 63.1984 206.855 63.7616V68.4335H205.766V67.4732H205.71C205.637 67.6271 205.513 67.7918 205.341 67.9672C205.169 68.1426 204.939 68.2919 204.653 68.415C204.367 68.5381 204.018 68.5997 203.605 68.5997ZM203.771 67.621C204.202 67.621 204.566 67.5363 204.861 67.3671C205.16 67.1978 205.384 66.9793 205.535 66.7115C205.689 66.4438 205.766 66.1622 205.766 65.8667V64.8696C205.72 64.9249 205.618 64.9757 205.461 65.0219C205.307 65.065 205.129 65.1035 204.926 65.1373C204.726 65.1681 204.53 65.1958 204.339 65.2204C204.152 65.2419 203.999 65.2604 203.882 65.2758C203.599 65.3127 203.334 65.3727 203.088 65.4558C202.845 65.5359 202.648 65.6574 202.497 65.8205C202.35 65.9806 202.276 66.1991 202.276 66.4761C202.276 66.8546 202.416 67.1409 202.696 67.3348C202.979 67.5256 203.338 67.621 203.771 67.621ZM211.928 61.3426V62.2659H210.413V66.4022C210.413 66.71 210.458 66.9408 210.547 67.0947C210.64 67.2455 210.757 67.3471 210.898 67.3994C211.043 67.4486 211.195 67.4732 211.355 67.4732C211.475 67.4732 211.574 67.4671 211.651 67.4548C211.728 67.4394 211.789 67.4271 211.835 67.4178L212.057 68.3965C211.983 68.4242 211.88 68.4519 211.748 68.4796C211.615 68.5104 211.448 68.5258 211.244 68.5258C210.937 68.5258 210.635 68.4596 210.34 68.3273C210.047 68.195 209.804 67.9934 209.61 67.7225C209.419 67.4517 209.324 67.1101 209.324 66.6977V62.2659H208.253V61.3426H209.324V59.6437H210.413V61.3426H211.928ZM216.724 61.3426V62.2659H215.136V68.4335H214.047V62.2659H212.902V61.3426H214.047V60.3639C214.047 59.9576 214.142 59.6191 214.333 59.3482C214.524 59.0774 214.771 58.8743 215.076 58.7389C215.381 58.6035 215.702 58.5357 216.041 58.5357C216.309 58.5357 216.527 58.5573 216.696 58.6004C216.866 58.6435 216.992 58.6835 217.075 58.7204L216.761 59.6622C216.706 59.6437 216.629 59.6206 216.53 59.5929C216.435 59.5652 216.309 59.5514 216.152 59.5514C215.792 59.5514 215.532 59.6422 215.372 59.8237C215.215 60.0053 215.136 60.2715 215.136 60.6224V61.3426H216.724ZM220.84 68.5812C220.2 68.5812 219.638 68.4289 219.155 68.1242C218.675 67.8195 218.299 67.3932 218.028 66.8454C217.761 66.2976 217.627 65.6574 217.627 64.9249C217.627 64.1863 217.761 63.5415 218.028 62.9906C218.299 62.4397 218.675 62.012 219.155 61.7073C219.638 61.4026 220.2 61.2502 220.84 61.2502C221.48 61.2502 222.04 61.4026 222.52 61.7073C223.003 62.012 223.379 62.4397 223.647 62.9906C223.917 63.5415 224.053 64.1863 224.053 64.9249C224.053 65.6574 223.917 66.2976 223.647 66.8454C223.379 67.3932 223.003 67.8195 222.52 68.1242C222.04 68.4289 221.48 68.5812 220.84 68.5812ZM220.84 67.6025C221.326 67.6025 221.726 67.4779 222.04 67.2286C222.354 66.9793 222.586 66.6515 222.737 66.2453C222.888 65.839 222.963 65.3989 222.963 64.9249C222.963 64.451 222.888 64.0093 222.737 63.6C222.586 63.1907 222.354 62.8598 222.04 62.6075C221.726 62.3551 221.326 62.2289 220.84 62.2289C220.353 62.2289 219.953 62.3551 219.639 62.6075C219.326 62.8598 219.093 63.1907 218.942 63.6C218.792 64.0093 218.716 64.451 218.716 64.9249C218.716 65.3989 218.792 65.839 218.942 66.2453C219.093 66.6515 219.326 66.9793 219.639 67.2286C219.953 67.4779 220.353 67.6025 220.84 67.6025ZM225.716 68.4335V61.3426H226.768V62.4136H226.842C226.972 62.0627 227.205 61.7781 227.544 61.5595C227.883 61.341 228.264 61.2318 228.689 61.2318C228.769 61.2318 228.869 61.2333 228.989 61.2364C229.109 61.2395 229.2 61.2441 229.261 61.2502V62.3582C229.224 62.349 229.14 62.3351 229.007 62.3166C228.878 62.2951 228.741 62.2843 228.597 62.2843C228.08 62.2843 227.652 62.4413 227.313 62.7552C226.975 63.0691 226.805 63.4661 226.805 63.9463V68.4335H225.716ZM230.553 68.4335V61.3426H231.605V62.4505H231.698C231.845 62.072 232.084 61.7781 232.413 61.5688C232.743 61.3564 233.138 61.2502 233.6 61.2502C234.068 61.2502 234.457 61.3564 234.768 61.5688C235.082 61.7781 235.326 62.072 235.502 62.4505H235.576C235.757 62.0843 236.03 61.7934 236.393 61.578C236.756 61.3595 237.191 61.2502 237.699 61.2502C238.333 61.2502 238.852 61.4487 239.255 61.8458C239.658 62.2397 239.86 62.8537 239.86 63.6877V68.4335H238.77V63.6877C238.77 63.1645 238.627 62.7906 238.341 62.5659C238.055 62.3413 237.718 62.2289 237.33 62.2289C236.831 62.2289 236.445 62.3797 236.171 62.6813C235.897 62.9799 235.76 63.3584 235.76 63.817V68.4335H234.652V63.5769C234.652 63.1738 234.521 62.8491 234.26 62.6029C233.998 62.3536 233.661 62.2289 233.249 62.2289C232.966 62.2289 232.701 62.3043 232.455 62.4551C232.212 62.6059 232.015 62.8152 231.864 63.083C231.716 63.3477 231.642 63.6539 231.642 64.0017V68.4335H230.553ZM245.139 59.9946V58.9789H252.229V59.9946H249.256V68.4335H248.112V59.9946H245.139ZM253.701 71.1849C253.516 71.1849 253.352 71.1695 253.207 71.1387C253.062 71.111 252.962 71.0833 252.907 71.0556L253.184 70.0954C253.581 70.197 253.912 70.1939 254.176 70.0862C254.444 69.9815 254.674 69.6645 254.864 69.1352L255.104 68.4704L252.482 61.3426H253.664L255.621 66.9931H255.695L257.653 61.3426H258.835L255.788 69.5784C255.388 70.6494 254.692 71.1849 253.701 71.1849ZM260.273 71.0926V61.3426H261.325V62.469H261.454C261.534 62.3459 261.645 62.1889 261.787 61.9981C261.931 61.8042 262.138 61.6319 262.405 61.4811C262.676 61.3272 263.042 61.2502 263.504 61.2502C264.101 61.2502 264.627 61.3995 265.083 61.698C265.538 61.9966 265.894 62.4197 266.149 62.9676C266.405 63.5154 266.532 64.1617 266.532 64.9065C266.532 65.6574 266.405 66.3084 266.149 66.8593C265.894 67.4071 265.54 67.8318 265.088 68.1334C264.635 68.4319 264.113 68.5812 263.523 68.5812C263.067 68.5812 262.702 68.5058 262.428 68.355C262.155 68.2011 261.944 68.0272 261.796 67.8333C261.648 67.6364 261.534 67.4732 261.454 67.344H261.362V71.0926H260.273ZM261.344 64.888C261.344 65.6913 261.517 66.3453 261.865 66.85C262.216 67.3517 262.719 67.6025 263.375 67.6025C263.83 67.6025 264.21 67.4825 264.515 67.2424C264.823 66.9993 265.054 66.6731 265.208 66.2637C265.365 65.8513 265.443 65.3928 265.443 64.888C265.443 64.3894 265.366 63.9401 265.212 63.54C265.061 63.1368 264.832 62.8183 264.524 62.5844C264.22 62.3474 263.836 62.2289 263.375 62.2289C262.71 62.2289 262.205 62.4736 261.861 62.9629C261.516 63.4523 261.344 64.094 261.344 64.888ZM271.167 68.5812C270.484 68.5812 269.895 68.4304 269.399 68.1288C268.907 67.8241 268.527 67.3994 268.259 66.8546C267.994 66.3068 267.862 65.6697 267.862 64.9434C267.862 64.2171 267.994 63.5769 268.259 63.023C268.527 62.4659 268.899 62.032 269.376 61.7211C269.856 61.4072 270.416 61.2502 271.057 61.2502C271.426 61.2502 271.791 61.3118 272.151 61.4349C272.511 61.558 272.839 61.758 273.134 62.035C273.43 62.3089 273.665 62.6721 273.84 63.1245C274.016 63.5769 274.104 64.134 274.104 64.7957V65.2573H268.956C268.981 66.0144 269.195 66.5946 269.598 66.9977C270.004 67.4009 270.527 67.6025 271.167 67.6025C271.595 67.6025 271.963 67.5102 272.271 67.3255C272.579 67.1409 272.802 66.8639 272.94 66.4946L273.993 66.79C273.827 67.3255 273.494 67.7579 272.996 68.0872C272.497 68.4165 271.888 68.5812 271.167 68.5812ZM268.956 64.3156H272.996C272.996 63.7154 272.82 63.2184 272.469 62.8245C272.118 62.4274 271.648 62.2289 271.057 62.2289C270.641 62.2289 270.281 62.3259 269.976 62.5198C269.672 62.7137 269.432 62.9706 269.256 63.2907C269.081 63.6077 268.981 63.9493 268.956 64.3156Z" fill="#7C89A9"/>
<path d="M115.714 288.282V295.555H114.833V288.282H115.714ZM118.304 292.273V295.555H117.466V290.1H118.276V290.952H118.347C118.475 290.675 118.669 290.453 118.929 290.285C119.19 290.114 119.526 290.029 119.938 290.029C120.489 290.029 120.934 290.198 121.273 290.537C121.614 290.875 121.784 291.393 121.784 292.089V295.555H120.946V292.146C120.946 291.717 120.835 291.383 120.612 291.144C120.39 290.903 120.084 290.782 119.696 290.782C119.296 290.782 118.963 290.912 118.698 291.173C118.436 291.431 118.304 291.798 118.304 292.273ZM127.279 291.322L126.526 291.535C126.453 291.345 126.33 291.168 126.157 291.002C125.984 290.836 125.714 290.754 125.347 290.754C125.014 290.754 124.736 290.83 124.513 290.984C124.293 291.136 124.183 291.329 124.183 291.563C124.183 291.772 124.258 291.936 124.41 292.057C124.562 292.178 124.798 292.278 125.12 292.359L125.93 292.558C126.896 292.794 127.379 293.287 127.379 294.035C127.379 294.347 127.289 294.627 127.109 294.873C126.931 295.119 126.683 295.313 126.363 295.455C126.044 295.597 125.672 295.668 125.248 295.668C124.692 295.668 124.231 295.548 123.867 295.306C123.502 295.065 123.271 294.712 123.174 294.248L123.97 294.049C124.119 294.636 124.54 294.93 125.234 294.93C125.624 294.93 125.935 294.847 126.164 294.681C126.396 294.513 126.512 294.312 126.512 294.077C126.512 293.692 126.242 293.436 125.703 293.31L124.794 293.097C124.294 292.979 123.927 292.795 123.693 292.547C123.461 292.296 123.345 291.982 123.345 291.606C123.345 291.298 123.431 291.026 123.604 290.789C123.779 290.552 124.017 290.366 124.318 290.232C124.621 290.097 124.964 290.029 125.347 290.029C125.887 290.029 126.311 290.147 126.619 290.384C126.929 290.621 127.149 290.933 127.279 291.322ZM131.112 290.1V290.81H129.948V293.992C129.948 294.229 129.982 294.406 130.051 294.525C130.122 294.641 130.212 294.719 130.321 294.759C130.432 294.797 130.549 294.816 130.672 294.816C130.764 294.816 130.84 294.811 130.899 294.802C130.959 294.79 131.006 294.781 131.041 294.773L131.212 295.526C131.155 295.548 131.076 295.569 130.974 295.59C130.872 295.614 130.743 295.626 130.587 295.626C130.35 295.626 130.118 295.575 129.891 295.473C129.666 295.371 129.479 295.216 129.33 295.008C129.183 294.799 129.11 294.537 129.11 294.219V290.81H128.286V290.1H129.11V288.793H129.948V290.1H131.112ZM134.078 295.683C133.733 295.683 133.419 295.617 133.137 295.487C132.855 295.355 132.632 295.164 132.466 294.915C132.3 294.665 132.217 294.362 132.217 294.006C132.217 293.694 132.279 293.441 132.402 293.246C132.525 293.05 132.69 292.896 132.896 292.785C133.102 292.674 133.329 292.591 133.578 292.536C133.828 292.479 134.081 292.434 134.334 292.401C134.665 292.359 134.934 292.327 135.14 292.305C135.348 292.282 135.5 292.243 135.595 292.188C135.692 292.134 135.74 292.039 135.74 291.904V291.876C135.74 291.525 135.644 291.253 135.453 291.059C135.263 290.865 134.975 290.768 134.59 290.768C134.189 290.768 133.876 290.855 133.649 291.031C133.421 291.206 133.261 291.393 133.169 291.592L132.374 291.308C132.516 290.976 132.705 290.718 132.942 290.533C133.181 290.346 133.441 290.216 133.723 290.143C134.007 290.067 134.287 290.029 134.561 290.029C134.736 290.029 134.938 290.05 135.165 290.093C135.395 290.133 135.616 290.217 135.829 290.345C136.044 290.473 136.223 290.666 136.365 290.924C136.507 291.182 136.578 291.528 136.578 291.961V295.555H135.74V294.816H135.698C135.641 294.934 135.546 295.061 135.413 295.196C135.281 295.331 135.104 295.446 134.884 295.54C134.664 295.635 134.395 295.683 134.078 295.683ZM134.206 294.93C134.537 294.93 134.817 294.865 135.044 294.734C135.274 294.604 135.447 294.436 135.563 294.23C135.681 294.024 135.74 293.808 135.74 293.58V292.813C135.705 292.856 135.627 292.895 135.506 292.93C135.387 292.964 135.25 292.993 135.094 293.019C134.94 293.043 134.79 293.064 134.643 293.083C134.498 293.1 134.381 293.114 134.291 293.126C134.073 293.154 133.87 293.2 133.68 293.264C133.493 293.326 133.342 293.419 133.226 293.545C133.112 293.668 133.055 293.836 133.055 294.049C133.055 294.34 133.163 294.56 133.379 294.71C133.596 294.856 133.872 294.93 134.206 294.93ZM140.41 297.714C139.801 297.714 139.319 297.603 138.964 297.38C138.612 297.16 138.35 296.906 138.179 296.62L138.847 296.151C138.923 296.251 139.019 296.364 139.135 296.492C139.251 296.622 139.409 296.735 139.611 296.83C139.814 296.927 140.08 296.975 140.41 296.975C140.85 296.975 141.213 296.869 141.5 296.656C141.786 296.442 141.929 296.109 141.929 295.654V294.546H141.858C141.797 294.646 141.709 294.769 141.596 294.915C141.484 295.06 141.323 295.189 141.113 295.303C140.904 295.414 140.623 295.469 140.268 295.469C139.827 295.469 139.432 295.365 139.081 295.157C138.733 294.949 138.458 294.646 138.254 294.248C138.053 293.85 137.952 293.367 137.952 292.799C137.952 292.24 138.05 291.754 138.247 291.339C138.443 290.923 138.717 290.601 139.067 290.374C139.418 290.144 139.822 290.029 140.282 290.029C140.637 290.029 140.919 290.088 141.127 290.207C141.338 290.323 141.499 290.455 141.61 290.604C141.723 290.751 141.811 290.872 141.873 290.967H141.958V290.1H142.768V295.711C142.768 296.18 142.661 296.561 142.448 296.854C142.237 297.15 141.953 297.367 141.596 297.504C141.241 297.644 140.845 297.714 140.41 297.714ZM140.381 294.717C140.885 294.717 141.271 294.546 141.539 294.205C141.809 293.862 141.944 293.388 141.944 292.785C141.944 292.195 141.811 291.715 141.546 291.343C141.281 290.969 140.893 290.782 140.381 290.782C140.026 290.782 139.73 290.872 139.493 291.052C139.259 291.232 139.083 291.473 138.964 291.776C138.848 292.079 138.79 292.415 138.79 292.785C138.79 293.353 138.924 293.817 139.192 294.177C139.459 294.537 139.856 294.717 140.381 294.717ZM144.402 295.555V290.1H145.211V290.924H145.268C145.365 290.654 145.544 290.435 145.804 290.267C146.065 290.099 146.359 290.015 146.689 290.015C146.84 290.015 146.973 290.033 147.086 290.068C147.2 290.104 147.299 290.152 147.385 290.214L147.1 290.924C147.041 290.893 146.971 290.87 146.891 290.853C146.813 290.834 146.722 290.825 146.618 290.825C146.22 290.825 145.891 290.946 145.63 291.19C145.37 291.432 145.24 291.736 145.24 292.103V295.555H144.402ZM149.945 295.683C149.599 295.683 149.285 295.617 149.004 295.487C148.722 295.355 148.498 295.164 148.332 294.915C148.167 294.665 148.084 294.362 148.084 294.006C148.084 293.694 148.145 293.441 148.268 293.246C148.392 293.05 148.556 292.896 148.762 292.785C148.968 292.674 149.195 292.591 149.444 292.536C149.695 292.479 149.947 292.434 150.2 292.401C150.532 292.359 150.8 292.327 151.006 292.305C151.215 292.282 151.366 292.243 151.461 292.188C151.558 292.134 151.607 292.039 151.607 291.904V291.876C151.607 291.525 151.511 291.253 151.319 291.059C151.13 290.865 150.842 290.768 150.456 290.768C150.056 290.768 149.742 290.855 149.515 291.031C149.288 291.206 149.128 291.393 149.036 291.592L148.24 291.308C148.382 290.976 148.572 290.718 148.808 290.533C149.047 290.346 149.308 290.216 149.59 290.143C149.874 290.067 150.153 290.029 150.428 290.029C150.603 290.029 150.804 290.05 151.031 290.093C151.261 290.133 151.482 290.217 151.695 290.345C151.911 290.473 152.09 290.666 152.232 290.924C152.374 291.182 152.445 291.528 152.445 291.961V295.555H151.607V294.816H151.564C151.507 294.934 151.412 295.061 151.28 295.196C151.147 295.331 150.971 295.446 150.751 295.54C150.531 295.635 150.262 295.683 149.945 295.683ZM150.072 294.93C150.404 294.93 150.683 294.865 150.911 294.734C151.14 294.604 151.313 294.436 151.429 294.23C151.547 294.024 151.607 293.808 151.607 293.58V292.813C151.571 292.856 151.493 292.895 151.372 292.93C151.254 292.964 151.116 292.993 150.96 293.019C150.806 293.043 150.656 293.064 150.509 293.083C150.365 293.1 150.248 293.114 150.158 293.126C149.94 293.154 149.736 293.2 149.547 293.264C149.36 293.326 149.208 293.419 149.092 293.545C148.979 293.668 148.922 293.836 148.922 294.049C148.922 294.34 149.03 294.56 149.245 294.71C149.463 294.856 149.739 294.93 150.072 294.93ZM154.074 295.555V290.1H154.884V290.952H154.955C155.069 290.661 155.252 290.435 155.505 290.274C155.759 290.111 156.063 290.029 156.418 290.029C156.778 290.029 157.077 290.111 157.316 290.274C157.558 290.435 157.746 290.661 157.881 290.952H157.938C158.078 290.671 158.287 290.447 158.566 290.281C158.846 290.113 159.181 290.029 159.571 290.029C160.059 290.029 160.458 290.182 160.768 290.487C161.078 290.79 161.233 291.263 161.233 291.904V295.555H160.395V291.904C160.395 291.502 160.285 291.214 160.065 291.041C159.845 290.868 159.586 290.782 159.287 290.782C158.904 290.782 158.607 290.898 158.396 291.13C158.185 291.36 158.08 291.651 158.08 292.004V295.555H157.228V291.819C157.228 291.509 157.127 291.259 156.926 291.07C156.725 290.878 156.465 290.782 156.148 290.782C155.93 290.782 155.727 290.84 155.537 290.956C155.35 291.072 155.199 291.233 155.083 291.439C154.969 291.643 154.912 291.878 154.912 292.146V295.555H154.074Z" fill="#7C89A9"/>
<path d="M192.309 295.555H190.065V288.282H192.409C193.114 288.282 193.718 288.428 194.22 288.719C194.722 289.008 195.106 289.423 195.374 289.965C195.642 290.505 195.775 291.151 195.775 291.904C195.775 292.662 195.64 293.314 195.37 293.861C195.101 294.405 194.708 294.824 194.191 295.118C193.675 295.409 193.048 295.555 192.309 295.555ZM190.946 294.773H192.253C193.155 294.773 193.825 294.518 194.263 294.006C194.703 293.493 194.923 292.792 194.923 291.904C194.923 291.023 194.708 290.33 194.277 289.823C193.846 289.317 193.204 289.063 192.352 289.063H190.946V294.773ZM197.239 295.555V290.1H198.049V290.924H198.105C198.205 290.654 198.385 290.435 198.645 290.267C198.906 290.099 199.199 290.015 199.526 290.015C199.587 290.015 199.664 290.016 199.757 290.018C199.849 290.021 199.919 290.024 199.966 290.029V290.881C199.938 290.874 199.873 290.864 199.771 290.849C199.671 290.833 199.566 290.825 199.455 290.825C199.057 290.825 198.728 290.945 198.468 291.187C198.207 291.428 198.077 291.734 198.077 292.103V295.555H197.239ZM201.06 295.555V290.1H201.898V295.555H201.06ZM201.486 289.191C201.322 289.191 201.182 289.135 201.063 289.024C200.947 288.913 200.889 288.779 200.889 288.623C200.889 288.467 200.947 288.333 201.063 288.222C201.182 288.11 201.322 288.055 201.486 288.055C201.649 288.055 201.789 288.11 201.905 288.222C202.023 288.333 202.082 288.467 202.082 288.623C202.082 288.779 202.023 288.913 201.905 289.024C201.789 289.135 201.649 289.191 201.486 289.191ZM203.646 295.555V288.282H204.484V290.967H204.555C204.617 290.872 204.702 290.751 204.811 290.604C204.922 290.455 205.081 290.323 205.287 290.207C205.495 290.088 205.777 290.029 206.132 290.029C206.591 290.029 206.996 290.144 207.347 290.374C207.697 290.603 207.97 290.929 208.167 291.35C208.363 291.772 208.462 292.269 208.462 292.842C208.462 293.419 208.363 293.92 208.167 294.344C207.97 294.765 207.698 295.092 207.35 295.324C207.002 295.554 206.601 295.668 206.146 295.668C205.796 295.668 205.515 295.61 205.305 295.494C205.094 295.376 204.932 295.242 204.818 295.093C204.705 294.942 204.617 294.816 204.555 294.717H204.456V295.555H203.646ZM204.47 292.827C204.47 293.445 204.604 293.948 204.871 294.337C205.141 294.723 205.528 294.915 206.033 294.915C206.383 294.915 206.675 294.823 206.91 294.638C207.147 294.451 207.324 294.201 207.442 293.886C207.563 293.568 207.624 293.216 207.624 292.827C207.624 292.444 207.564 292.098 207.446 291.79C207.33 291.48 207.154 291.235 206.917 291.055C206.683 290.873 206.388 290.782 206.033 290.782C205.521 290.782 205.133 290.97 204.868 291.347C204.603 291.723 204.47 292.217 204.47 292.827ZM209.957 295.555V288.282H210.795V290.967H210.866C210.928 290.872 211.013 290.751 211.122 290.604C211.233 290.455 211.392 290.323 211.598 290.207C211.806 290.088 212.088 290.029 212.443 290.029C212.902 290.029 213.307 290.144 213.658 290.374C214.008 290.603 214.281 290.929 214.478 291.35C214.674 291.772 214.773 292.269 214.773 292.842C214.773 293.419 214.674 293.92 214.478 294.344C214.281 294.765 214.009 295.092 213.661 295.324C213.313 295.554 212.912 295.668 212.457 295.668C212.107 295.668 211.826 295.61 211.616 295.494C211.405 295.376 211.243 295.242 211.129 295.093C211.015 294.942 210.928 294.816 210.866 294.717H210.767V295.555H209.957ZM210.781 292.827C210.781 293.445 210.915 293.948 211.182 294.337C211.452 294.723 211.839 294.915 212.344 294.915C212.694 294.915 212.986 294.823 213.221 294.638C213.457 294.451 213.635 294.201 213.753 293.886C213.874 293.568 213.935 293.216 213.935 292.827C213.935 292.444 213.875 292.098 213.757 291.79C213.641 291.48 213.465 291.235 213.228 291.055C212.993 290.873 212.699 290.782 212.344 290.782C211.832 290.782 211.444 290.97 211.179 291.347C210.914 291.723 210.781 292.217 210.781 292.827ZM216.993 288.282V295.555H216.155V288.282H216.993ZM220.915 295.668C220.389 295.668 219.936 295.552 219.554 295.32C219.176 295.086 218.883 294.759 218.677 294.34C218.474 293.919 218.372 293.429 218.372 292.87C218.372 292.311 218.474 291.819 218.677 291.393C218.883 290.964 219.17 290.63 219.537 290.391C219.906 290.15 220.337 290.029 220.829 290.029C221.113 290.029 221.394 290.076 221.671 290.171C221.948 290.266 222.2 290.42 222.427 290.633C222.655 290.844 222.836 291.123 222.971 291.471C223.106 291.819 223.173 292.247 223.173 292.756V293.112H219.214C219.232 293.694 219.397 294.14 219.707 294.45C220.02 294.76 220.422 294.915 220.915 294.915C221.244 294.915 221.527 294.844 221.763 294.702C222 294.56 222.172 294.347 222.278 294.063L223.088 294.29C222.96 294.702 222.704 295.035 222.321 295.288C221.937 295.542 221.469 295.668 220.915 295.668ZM219.214 292.387H222.321C222.321 291.925 222.186 291.543 221.916 291.24C221.646 290.935 221.284 290.782 220.829 290.782C220.51 290.782 220.233 290.857 219.998 291.006C219.764 291.155 219.579 291.353 219.444 291.599C219.309 291.843 219.232 292.105 219.214 292.387Z" fill="#7C89A9"/>
<path d="M257.832 289.063V288.282H263.287V289.063H261V295.555H260.119V289.063H257.832ZM265.243 295.555L263.581 290.1H264.462L265.641 294.276H265.698L266.863 290.1H267.757L268.908 294.262H268.965L270.144 290.1H271.025L269.363 295.555H268.539L267.346 291.364H267.26L266.067 295.555H265.243ZM272.232 295.555V290.1H273.071V295.555H272.232ZM272.659 289.191C272.495 289.191 272.354 289.135 272.236 289.024C272.12 288.913 272.062 288.779 272.062 288.623C272.062 288.467 272.12 288.333 272.236 288.222C272.354 288.11 272.495 288.055 272.659 288.055C272.822 288.055 272.962 288.11 273.078 288.222C273.196 288.333 273.255 288.467 273.255 288.623C273.255 288.779 273.196 288.913 273.078 289.024C272.962 289.135 272.822 289.191 272.659 289.191ZM277.078 290.1V290.81H275.913V293.992C275.913 294.229 275.947 294.406 276.016 294.525C276.087 294.641 276.177 294.719 276.286 294.759C276.397 294.797 276.514 294.816 276.637 294.816C276.73 294.816 276.805 294.811 276.865 294.802C276.924 294.79 276.971 294.781 277.007 294.773L277.177 295.526C277.12 295.548 277.041 295.569 276.939 295.59C276.837 295.614 276.708 295.626 276.552 295.626C276.315 295.626 276.083 295.575 275.856 295.473C275.631 295.371 275.444 295.216 275.295 295.008C275.148 294.799 275.075 294.537 275.075 294.219V290.81H274.251V290.1H275.075V288.793H275.913V290.1H277.078ZM280.81 290.1V290.81H279.646V293.992C279.646 294.229 279.68 294.406 279.749 294.525C279.82 294.641 279.91 294.719 280.019 294.759C280.13 294.797 280.247 294.816 280.37 294.816C280.462 294.816 280.538 294.811 280.597 294.802C280.657 294.79 280.704 294.781 280.739 294.773L280.91 295.526C280.853 295.548 280.774 295.569 280.672 295.59C280.57 295.614 280.441 295.626 280.285 295.626C280.048 295.626 279.816 295.575 279.589 295.473C279.364 295.371 279.177 295.216 279.028 295.008C278.881 294.799 278.808 294.537 278.808 294.219V290.81H277.984V290.1H278.808V288.793H279.646V290.1H280.81ZM284.399 295.668C283.874 295.668 283.421 295.552 283.039 295.32C282.661 295.086 282.368 294.759 282.162 294.34C281.959 293.919 281.857 293.429 281.857 292.87C281.857 292.311 281.959 291.819 282.162 291.393C282.368 290.964 282.655 290.63 283.022 290.391C283.391 290.15 283.822 290.029 284.314 290.029C284.598 290.029 284.879 290.076 285.156 290.171C285.433 290.266 285.685 290.42 285.912 290.633C286.14 290.844 286.321 291.123 286.456 291.471C286.591 291.819 286.658 292.247 286.658 292.756V293.112H282.698C282.717 293.694 282.882 294.14 283.192 294.45C283.505 294.76 283.907 294.915 284.399 294.915C284.729 294.915 285.011 294.844 285.248 294.702C285.485 294.56 285.657 294.347 285.763 294.063L286.573 294.29C286.445 294.702 286.189 295.035 285.806 295.288C285.422 295.542 284.953 295.668 284.399 295.668ZM282.698 292.387H285.806C285.806 291.925 285.671 291.543 285.401 291.24C285.131 290.935 284.769 290.782 284.314 290.782C283.995 290.782 283.718 290.857 283.483 291.006C283.249 291.155 283.064 291.353 282.929 291.599C282.794 291.843 282.717 292.105 282.698 292.387ZM288.033 295.555V290.1H288.843V290.924H288.899C288.996 290.654 289.175 290.435 289.436 290.267C289.696 290.099 289.991 290.015 290.32 290.015C290.471 290.015 290.604 290.033 290.718 290.068C290.831 290.104 290.931 290.152 291.016 290.214L290.732 290.924C290.673 290.893 290.603 290.87 290.522 290.853C290.444 290.834 290.353 290.825 290.249 290.825C289.851 290.825 289.522 290.946 289.262 291.19C289.001 291.432 288.871 291.736 288.871 292.103V295.555H288.033Z" fill="#7C89A9"/>
<circle cx="106.422" cy="291.865" r="3.34044" fill="#703FFB"/>
<circle cx="182.883" cy="291.865" r="3.34044" fill="#DE287A"/>
<circle cx="251.176" cy="291.865" r="3.34044" fill="#FCAE56"/>
<circle cx="199.216" cy="178.286" r="27.0947" stroke="#F0F3F9" stroke-width="5.93856"/>
<circle cx="199.217" cy="178.286" r="52.3336" stroke="#F0F3F9" stroke-width="5.93856"/>
<circle cx="199.218" cy="178.287" r="77.5725" stroke="#F0F3F9" stroke-width="5.93856"/>
<mask id="path-12-inside-1" fill="white">
<path d="M195.547 100.8C195.469 99.1627 196.734 97.767 198.372 97.7498C213.532 97.5905 228.452 101.714 241.401 109.676C255.194 118.156 266.111 130.597 272.728 145.375C279.344 160.153 281.353 176.582 278.492 192.518C275.631 208.455 268.033 223.159 256.69 234.713C245.346 246.267 230.784 254.134 214.903 257.287C199.021 260.44 182.558 258.733 167.661 252.389C152.764 246.046 140.125 235.359 131.393 221.724C123.195 208.923 118.798 194.082 118.678 178.921C118.665 177.283 120.038 175.993 121.676 176.04C123.314 176.088 124.597 177.455 124.615 179.093C124.766 193.061 128.836 206.727 136.391 218.523C144.479 231.153 156.187 241.053 169.986 246.929C183.786 252.805 199.036 254.386 213.747 251.465C228.458 248.545 241.947 241.258 252.455 230.555C262.962 219.853 270 206.232 272.65 191.47C275.3 176.707 273.44 161.489 267.311 147.8C261.182 134.111 251.07 122.587 238.293 114.732C226.36 107.395 212.621 103.577 198.653 103.683C197.014 103.695 195.624 102.437 195.547 100.8Z"/>
</mask>
<path d="M195.547 100.8C195.469 99.1627 196.734 97.767 198.372 97.7498C213.532 97.5905 228.452 101.714 241.401 109.676C255.194 118.156 266.111 130.597 272.728 145.375C279.344 160.153 281.353 176.582 278.492 192.518C275.631 208.455 268.033 223.159 256.69 234.713C245.346 246.267 230.784 254.134 214.903 257.287C199.021 260.44 182.558 258.733 167.661 252.389C152.764 246.046 140.125 235.359 131.393 221.724C123.195 208.923 118.798 194.082 118.678 178.921C118.665 177.283 120.038 175.993 121.676 176.04C123.314 176.088 124.597 177.455 124.615 179.093C124.766 193.061 128.836 206.727 136.391 218.523C144.479 231.153 156.187 241.053 169.986 246.929C183.786 252.805 199.036 254.386 213.747 251.465C228.458 248.545 241.947 241.258 252.455 230.555C262.962 219.853 270 206.232 272.65 191.47C275.3 176.707 273.44 161.489 267.311 147.8C261.182 134.111 251.07 122.587 238.293 114.732C226.36 107.395 212.621 103.577 198.653 103.683C197.014 103.695 195.624 102.437 195.547 100.8Z" stroke="#703FFB" stroke-width="11.8771" mask="url(#path-12-inside-1)"/>
<mask id="path-13-inside-2" fill="white">
<path d="M196.08 151.371C195.89 149.743 197.057 148.255 198.696 148.226C201.921 148.17 205.142 148.634 208.231 149.605C212.267 150.874 215.989 152.98 219.155 155.785C222.321 158.59 224.859 162.032 226.604 165.886C228.349 169.74 229.261 173.918 229.28 178.148C229.299 182.378 228.426 186.565 226.717 190.434C225.007 194.303 222.501 197.768 219.361 200.603C216.221 203.437 212.518 205.577 208.494 206.882C205.413 207.882 202.197 208.375 198.971 208.349C197.333 208.335 196.152 206.858 196.327 205.228C196.502 203.599 197.967 202.439 199.605 202.413C201.998 202.374 204.377 201.98 206.663 201.238C209.892 200.19 212.864 198.473 215.385 196.198C217.905 193.923 219.917 191.142 221.289 188.036C222.661 184.931 223.362 181.57 223.346 178.175C223.331 174.78 222.599 171.426 221.198 168.333C219.798 165.24 217.761 162.478 215.22 160.226C212.679 157.974 209.691 156.284 206.452 155.266C204.159 154.545 201.777 154.173 199.384 154.156C197.746 154.145 196.27 152.998 196.08 151.371Z"/>
</mask>
<path d="M196.08 151.371C195.89 149.743 197.057 148.255 198.696 148.226C201.921 148.17 205.142 148.634 208.231 149.605C212.267 150.874 215.989 152.98 219.155 155.785C222.321 158.59 224.859 162.032 226.604 165.886C228.349 169.74 229.261 173.918 229.28 178.148C229.299 182.378 228.426 186.565 226.717 190.434C225.007 194.303 222.501 197.768 219.361 200.603C216.221 203.437 212.518 205.577 208.494 206.882C205.413 207.882 202.197 208.375 198.971 208.349C197.333 208.335 196.152 206.858 196.327 205.228C196.502 203.599 197.967 202.439 199.605 202.413C201.998 202.374 204.377 201.98 206.663 201.238C209.892 200.19 212.864 198.473 215.385 196.198C217.905 193.923 219.917 191.142 221.289 188.036C222.661 184.931 223.362 181.57 223.346 178.175C223.331 174.78 222.599 171.426 221.198 168.333C219.798 165.24 217.761 162.478 215.22 160.226C212.679 157.974 209.691 156.284 206.452 155.266C204.159 154.545 201.777 154.173 199.384 154.156C197.746 154.145 196.27 152.998 196.08 151.371Z" stroke="#FCAE56" stroke-width="11.8771" mask="url(#path-13-inside-2)"/>
<mask id="path-14-inside-3" fill="white">
<path d="M195.656 126.073C195.544 124.437 196.78 123.013 198.419 122.989C206.847 122.867 215.205 124.674 222.849 128.287C231.389 132.323 238.753 138.48 244.239 146.17C249.724 153.86 253.149 162.826 254.186 172.215C255.222 181.604 253.837 191.102 250.162 199.804C246.487 208.505 240.644 216.12 233.191 221.923C225.737 227.726 216.922 231.523 207.585 232.952C198.248 234.382 188.7 233.395 179.852 230.088C171.933 227.127 164.81 222.395 159.021 216.269C157.895 215.077 158.055 213.198 159.305 212.138C160.555 211.078 162.421 211.239 163.555 212.423C168.683 217.78 174.961 221.922 181.931 224.528C189.829 227.48 198.352 228.36 206.687 227.085C215.022 225.809 222.891 222.419 229.544 217.239C236.197 212.059 241.413 205.262 244.694 197.494C247.974 189.726 249.211 181.248 248.285 172.867C247.36 164.486 244.303 156.482 239.406 149.617C234.509 142.753 227.936 137.257 220.313 133.654C213.585 130.474 206.238 128.862 198.823 128.921C197.184 128.934 195.767 127.708 195.656 126.073Z"/>
</mask>
<path d="M195.656 126.073C195.544 124.437 196.78 123.013 198.419 122.989C206.847 122.867 215.205 124.674 222.849 128.287C231.389 132.323 238.753 138.48 244.239 146.17C249.724 153.86 253.149 162.826 254.186 172.215C255.222 181.604 253.837 191.102 250.162 199.804C246.487 208.505 240.644 216.12 233.191 221.923C225.737 227.726 216.922 231.523 207.585 232.952C198.248 234.382 188.7 233.395 179.852 230.088C171.933 227.127 164.81 222.395 159.021 216.269C157.895 215.077 158.055 213.198 159.305 212.138C160.555 211.078 162.421 211.239 163.555 212.423C168.683 217.78 174.961 221.922 181.931 224.528C189.829 227.48 198.352 228.36 206.687 227.085C215.022 225.809 222.891 222.419 229.544 217.239C236.197 212.059 241.413 205.262 244.694 197.494C247.974 189.726 249.211 181.248 248.285 172.867C247.36 164.486 244.303 156.482 239.406 149.617C234.509 142.753 227.936 137.257 220.313 133.654C213.585 130.474 206.238 128.862 198.823 128.921C197.184 128.934 195.767 127.708 195.656 126.073Z" stroke="#DE287A" stroke-width="11.8771" mask="url(#path-14-inside-3)"/>
<g filter="url(#filter1_d)">
<rect x="83.043" y="128.924" width="74.232" height="34.1467" rx="4" fill="white"/>
</g>
<path d="M96.8904 151.619L96.8953 150.48C95.8712 150.397 95.0558 150.086 94.4493 149.545C93.8461 149.005 93.5279 148.269 93.4948 147.338H95.3094C95.3392 147.789 95.5016 148.142 95.7966 148.397C96.0916 148.652 96.4611 148.815 96.9053 148.884L96.9252 145.876L96.4777 145.762C95.6392 145.547 94.9763 145.22 94.4891 144.783C94.0052 144.342 93.7632 143.757 93.7632 143.028C93.7632 142.481 93.8991 141.995 94.1709 141.571C94.446 141.143 94.8238 140.799 95.3044 140.537C95.7883 140.275 96.3418 140.113 96.9649 140.05L96.9699 138.891H98.0239L98.0189 140.05C98.6453 140.109 99.1922 140.27 99.6595 140.532C100.13 140.79 100.496 141.128 100.758 141.546C101.023 141.964 101.161 142.436 101.171 142.963H99.396C99.3563 142.605 99.2137 142.312 98.9685 142.083C98.7265 141.851 98.4067 141.7 98.009 141.631L97.9891 144.469L98.3172 144.554C98.8276 144.673 99.3099 144.851 99.7639 145.086C100.221 145.318 100.593 145.629 100.878 146.021C101.166 146.408 101.31 146.897 101.31 147.487C101.307 148.322 101.012 149.012 100.425 149.555C99.8418 150.096 99.0165 150.404 97.9493 150.48L97.9443 151.619H96.8904ZM97.9593 148.884C98.4166 148.811 98.7812 148.651 99.053 148.402C99.3248 148.15 99.4623 147.84 99.4656 147.472C99.4623 147.121 99.3264 146.847 99.058 146.652C98.7895 146.453 98.4299 146.287 97.9791 146.155L97.9593 148.884ZM96.9351 144.201L96.955 141.631C96.5374 141.704 96.2126 141.856 95.9806 142.088C95.7519 142.317 95.6359 142.592 95.6325 142.913C95.6292 143.268 95.7585 143.545 96.0203 143.744C96.2855 143.939 96.5904 144.092 96.9351 144.201ZM106.753 140.164V150.346H104.903V142.521H104.819C104.719 142.676 104.487 142.842 104.123 143.018C103.758 143.19 103.289 143.276 102.716 143.276V141.785C103.067 141.785 103.38 141.723 103.655 141.601C103.931 141.475 104.164 141.322 104.356 141.143C104.552 140.961 104.703 140.78 104.809 140.602C104.915 140.423 104.973 140.277 104.983 140.164H106.753ZM113.003 150.485C112.287 150.485 111.651 150.362 111.094 150.117C110.541 149.872 110.102 149.53 109.777 149.093C109.455 148.655 109.286 148.15 109.27 147.577H111.139C111.162 147.991 111.349 148.322 111.701 148.571C112.055 148.816 112.488 148.939 112.998 148.939C113.542 148.939 113.989 148.8 114.341 148.521C114.692 148.24 114.866 147.873 114.863 147.423C114.866 146.962 114.685 146.586 114.321 146.294C113.959 146.002 113.457 145.856 112.814 145.856H111.915V144.435H112.814C113.341 144.435 113.771 144.299 114.102 144.027C114.437 143.755 114.602 143.397 114.599 142.953C114.602 142.526 114.458 142.181 114.167 141.919C113.878 141.654 113.497 141.521 113.023 141.521C112.553 141.521 112.145 141.646 111.8 141.894C111.455 142.143 111.275 142.481 111.258 142.908H109.483C109.497 142.338 109.661 141.838 109.976 141.407C110.29 140.973 110.713 140.635 111.243 140.393C111.777 140.147 112.374 140.025 113.033 140.025C113.713 140.025 114.303 140.152 114.803 140.408C115.307 140.66 115.696 140.999 115.971 141.427C116.25 141.854 116.387 142.327 116.384 142.844C116.387 143.414 116.22 143.894 115.882 144.285C115.544 144.673 115.098 144.927 114.544 145.046V145.126C115.257 145.228 115.806 145.494 116.19 145.921C116.575 146.349 116.765 146.881 116.762 147.517C116.765 148.09 116.604 148.601 116.28 149.048C115.955 149.496 115.509 149.847 114.942 150.102C114.375 150.357 113.729 150.485 113.003 150.485ZM120.123 148.954L120.058 149.501C120.012 149.918 119.929 150.343 119.809 150.773C119.693 151.208 119.571 151.607 119.441 151.972C119.312 152.336 119.208 152.623 119.128 152.832H117.915C117.965 152.629 118.03 152.353 118.109 152.001C118.189 151.653 118.267 151.262 118.343 150.828C118.419 150.397 118.47 149.958 118.497 149.511L118.532 148.954H120.123ZM125.259 150.485C124.52 150.485 123.864 150.361 123.291 150.112C122.721 149.864 122.275 149.524 121.953 149.093C121.632 148.659 121.471 148.167 121.471 147.616C121.471 147.192 121.564 146.801 121.75 146.443C121.938 146.082 122.194 145.782 122.515 145.543C122.837 145.301 123.198 145.147 123.599 145.081V145.011C123.075 144.895 122.651 144.628 122.326 144.211C122.005 143.79 121.846 143.304 121.849 142.754C121.849 142.231 121.995 141.763 122.286 141.352C122.581 140.941 122.986 140.618 123.5 140.383C124.017 140.144 124.603 140.025 125.259 140.025C125.912 140.025 126.494 140.144 127.005 140.383C127.518 140.618 127.923 140.941 128.218 141.352C128.516 141.763 128.665 142.231 128.665 142.754C128.662 143.304 128.498 143.79 128.173 144.211C127.848 144.628 127.429 144.895 126.915 145.011V145.081C127.309 145.147 127.667 145.301 127.989 145.543C128.31 145.782 128.566 146.082 128.755 146.443C128.947 146.801 129.043 147.192 129.043 147.616C129.043 148.167 128.88 148.659 128.556 149.093C128.231 149.524 127.783 149.864 127.213 150.112C126.647 150.361 125.995 150.485 125.259 150.485ZM125.259 149.063C125.83 149.063 126.285 148.919 126.627 148.631C126.971 148.339 127.145 147.958 127.149 147.487C127.145 147.003 126.965 146.606 126.607 146.294C126.252 145.979 125.803 145.822 125.259 145.822C124.709 145.822 124.255 145.977 123.897 146.289C123.543 146.601 123.367 147 123.37 147.487C123.367 147.958 123.536 148.339 123.877 148.631C124.222 148.919 124.683 149.063 125.259 149.063ZM125.259 144.425C125.724 144.425 126.106 144.287 126.408 144.012C126.713 143.734 126.867 143.372 126.87 142.928C126.867 142.491 126.716 142.138 126.418 141.869C126.12 141.601 125.733 141.467 125.259 141.467C124.779 141.467 124.389 141.601 124.091 141.869C123.793 142.138 123.645 142.491 123.649 142.928C123.645 143.369 123.795 143.729 124.096 144.007C124.401 144.285 124.789 144.425 125.259 144.425ZM134.331 150.485C133.616 150.485 132.979 150.362 132.422 150.117C131.869 149.872 131.43 149.53 131.105 149.093C130.783 148.655 130.614 148.15 130.598 147.577H132.467C132.49 147.991 132.678 148.322 133.029 148.571C133.383 148.816 133.816 148.939 134.326 148.939C134.87 148.939 135.317 148.8 135.669 148.521C136.02 148.24 136.194 147.873 136.191 147.423C136.194 146.962 136.013 146.586 135.649 146.294C135.288 146.002 134.785 145.856 134.142 145.856H133.243V144.435H134.142C134.669 144.435 135.099 144.299 135.43 144.027C135.765 143.755 135.931 143.397 135.927 142.953C135.931 142.526 135.786 142.181 135.495 141.919C135.206 141.654 134.825 141.521 134.351 141.521C133.881 141.521 133.473 141.646 133.128 141.894C132.784 142.143 132.603 142.481 132.586 142.908H130.812C130.825 142.338 130.989 141.838 131.304 141.407C131.619 140.973 132.041 140.635 132.571 140.393C133.105 140.147 133.702 140.025 134.361 140.025C135.041 140.025 135.631 140.152 136.131 140.408C136.635 140.66 137.024 140.999 137.299 141.427C137.578 141.854 137.715 142.327 137.712 142.844C137.715 143.414 137.548 143.894 137.21 144.285C136.872 144.673 136.426 144.927 135.873 145.046V145.126C136.585 145.228 137.134 145.494 137.518 145.921C137.903 146.349 138.093 146.881 138.09 147.517C138.093 148.09 137.932 148.601 137.608 149.048C137.283 149.496 136.837 149.847 136.27 150.102C135.704 150.357 135.057 150.485 134.331 150.485ZM139.796 150.346V149.013L143.331 145.548C143.835 145.038 144.215 144.604 144.47 144.246C144.725 143.888 144.853 143.497 144.853 143.072C144.853 142.592 144.692 142.214 144.37 141.939C144.049 141.66 143.646 141.521 143.162 141.521C142.655 141.521 142.249 141.674 141.944 141.979C141.643 142.28 141.492 142.691 141.492 143.212H139.737C139.737 142.565 139.884 142.003 140.179 141.526C140.474 141.049 140.88 140.679 141.397 140.418C141.918 140.156 142.514 140.025 143.187 140.025C143.87 140.025 144.468 140.152 144.982 140.408C145.499 140.663 145.902 141.012 146.19 141.457C146.478 141.901 146.622 142.408 146.622 142.978C146.622 143.359 146.55 143.734 146.404 144.102C146.258 144.469 146.001 144.879 145.633 145.329C145.268 145.777 144.756 146.317 144.097 146.95L142.342 148.735V148.805H146.777V150.346H139.796Z" fill="#6A35FF"/>
<defs>
<filter id="filter0_d" x="0" y="0" width="378.72" height="406.928" filterUnits="userSpaceOnUse" color-interpolation-filters="sRGB">
<feFlood flood-opacity="0" result="BackgroundImageFix"/>
<feColorMatrix in="SourceAlpha" type="matrix" values="0 0 0 0 0 0 0 0 0 0 0 0 0 0 0 0 0 0 127 0"/>
<feMorphology radius="25" operator="erode" in="SourceAlpha" result="effect1_dropShadow"/>
<feOffset dx="-8" dy="30"/>
<feGaussianBlur stdDeviation="40"/>
<feColorMatrix type="matrix" values="0 0 0 0 0.320833 0 0 0 0 0.320833 0 0 0 0 0.320833 0 0 0 0.1 0"/>
<feBlend mode="normal" in2="BackgroundImageFix" result="effect1_dropShadow"/>
<feBlend mode="normal" in="SourceGraphic" in2="effect1_dropShadow" result="shape"/>
</filter>
<filter id="filter1_d" x="63.043" y="118.924" width="134.232" height="94.1467" filterUnits="userSpaceOnUse" color-interpolation-filters="sRGB">
<feFlood flood-opacity="0" result="BackgroundImageFix"/>
<feColorMatrix in="SourceAlpha" type="matrix" values="0 0 0 0 0 0 0 0 0 0 0 0 0 0 0 0 0 0 127 0"/>
<feOffset dx="10" dy="20"/>
<feGaussianBlur stdDeviation="15"/>
<feColorMatrix type="matrix" values="0 0 0 0 0 0 0 0 0 0 0 0 0 0 0 0 0 0 0.04 0"/>
<feBlend mode="normal" in2="BackgroundImageFix" result="effect1_dropShadow"/>
<feBlend mode="normal" in="SourceGraphic" in2="effect1_dropShadow" result="shape"/>
</filter>
</defs>
</svg>
