<svg width="140" height="128" viewBox="0 0 140 128" fill="none" xmlns="http://www.w3.org/2000/svg">
<path d="M60.983 127.776C104.282 127.776 139.383 92.6756 139.383 49.3767C139.383 30.6622 132.826 13.4793 121.883 0L0.390625 99.1303C14.7693 116.621 36.5734 127.776 60.983 127.776Z" fill="#C2A6F1"/>
<path d="M60.983 127.776C104.282 127.776 139.383 92.6756 139.383 49.3767C139.383 30.6622 132.826 13.4793 121.883 0L0.390625 99.1303C14.7693 116.621 36.5734 127.776 60.983 127.776Z" fill="url(#paint0_radial)"/>
<path d="M60.983 127.776C104.282 127.776 139.383 92.6756 139.383 49.3767C139.383 30.6622 132.826 13.4793 121.883 0L0.390625 99.1303C14.7693 116.621 36.5734 127.776 60.983 127.776Z" fill="url(#paint1_linear)"/>
<path d="M60.983 127.776C104.282 127.776 139.383 92.6756 139.383 49.3767C139.383 30.6622 132.826 13.4793 121.883 0L0.390625 99.1303C14.7693 116.621 36.5734 127.776 60.983 127.776Z" fill="url(#paint2_linear)"/>
<path d="M60.983 127.776C104.282 127.776 139.383 92.6756 139.383 49.3767C139.383 30.6622 132.826 13.4793 121.883 0L0.390625 99.1303C14.7693 116.621 36.5734 127.776 60.983 127.776Z" fill="url(#paint3_linear)"/>
<path d="M60.983 127.776C104.282 127.776 139.383 92.6756 139.383 49.3767C139.383 30.6622 132.826 13.4793 121.883 0L0.390625 99.1303C14.7693 116.621 36.5734 127.776 60.983 127.776Z" fill="url(#paint4_radial)"/>
<path d="M60.983 127.776C104.282 127.776 139.383 92.6756 139.383 49.3767C139.383 30.6622 132.826 13.4793 121.883 0L0.390625 99.1303C14.7693 116.621 36.5734 127.776 60.983 127.776Z" fill="url(#paint5_radial)"/>
<path d="M60.983 127.776C104.282 127.776 139.383 92.6756 139.383 49.3767C139.383 30.6622 132.826 13.4793 121.883 0L0.390625 99.1303C14.7693 116.621 36.5734 127.776 60.983 127.776Z" fill="url(#paint6_radial)"/>
<path d="M60.983 127.776C104.282 127.776 139.383 92.6756 139.383 49.3767C139.383 30.6622 132.826 13.4793 121.883 0L0.390625 99.1303C14.7693 116.621 36.5734 127.776 60.983 127.776Z" fill="url(#paint7_linear)"/>
<defs>
<radialGradient id="paint0_radial" cx="0" cy="0" r="1" gradientUnits="userSpaceOnUse" gradientTransform="translate(126.526 51.3023) rotate(107.004) scale(130.108 63.8072)">
<stop stop-color="#F3476F"/>
<stop offset="0.344597" stop-color="#EA8ED0"/>
<stop offset="0.695017" stop-color="#F0BDD0"/>
<stop offset="1" stop-color="#FF8126" stop-opacity="0"/>
</radialGradient>
<linearGradient id="paint1_linear" x1="79.3555" y1="-8.6303" x2="110.212" y2="18.1002" gradientUnits="userSpaceOnUse">
<stop stop-color="#C0A9F0" stop-opacity="0"/>
<stop offset="0.456382" stop-color="#C0A9F0"/>
<stop offset="1" stop-color="#C0A9F0" stop-opacity="0"/>
</linearGradient>
<linearGradient id="paint2_linear" x1="149.286" y1="-29.9663" x2="114.693" y2="20.9898" gradientUnits="userSpaceOnUse">
<stop stop-color="#C0A9F0" stop-opacity="0"/>
<stop offset="0.461891" stop-color="#C0A9F0"/>
<stop offset="1" stop-color="#C0A9F0" stop-opacity="0"/>
</linearGradient>
<linearGradient id="paint3_linear" x1="35.7467" y1="20.1374" x2="70.6707" y2="57.5894" gradientUnits="userSpaceOnUse">
<stop stop-color="#643DD5" stop-opacity="0.6"/>
<stop offset="1" stop-color="#77C0EB" stop-opacity="0.01"/>
</linearGradient>
<radialGradient id="paint4_radial" cx="0" cy="0" r="1" gradientUnits="userSpaceOnUse" gradientTransform="translate(63.7189 57.0558) rotate(-119.373) scale(40.0264 82.8296)">
<stop stop-color="#CBADEB"/>
<stop offset="1" stop-color="#C2A6F1" stop-opacity="0"/>
</radialGradient>
<radialGradient id="paint5_radial" cx="0" cy="0" r="1" gradientUnits="userSpaceOnUse" gradientTransform="translate(50.254 127.776) rotate(-127.397) scale(57.7864 78.9276)">
<stop stop-color="#DC8DDC"/>
<stop offset="1" stop-color="#DC8DDC" stop-opacity="0"/>
</radialGradient>
<radialGradient id="paint6_radial" cx="0" cy="0" r="1" gradientUnits="userSpaceOnUse" gradientTransform="translate(61.8946 111.115) rotate(-138.881) scale(50.853 95.6199)">
<stop stop-color="#DC8DDC"/>
<stop offset="1" stop-color="#DC8DDC" stop-opacity="0"/>
</radialGradient>
<linearGradient id="paint7_linear" x1="0.390625" y1="0" x2="28.4199" y2="20.0669" gradientUnits="userSpaceOnUse">
<stop stop-color="#D538CF"/>
<stop offset="1" stop-color="#EBF3D0" stop-opacity="0"/>
</linearGradient>
</defs>
</svg>
